<svg width="20" height="20" viewBox="0 0 20 20" fill="none" xmlns="http://www.w3.org/2000/svg">
<path opacity="0.2" d="M10.0001 0.769287C8.1328 0.769304 6.30946 1.33561 4.77074 2.39343C3.23203 3.45125 2.0503 4.95086 1.38157 6.69426C0.712844 8.43766 0.588563 10.3429 1.02514 12.1584C1.46171 13.9739 2.43861 15.6143 3.82687 16.863V16.8629C4.40604 15.7235 5.28936 14.7667 6.37895 14.0984C7.46855 13.4302 8.72187 13.0766 10.0001 13.077C9.23936 13.077 8.49575 12.8514 7.86325 12.4288C7.23075 12.0062 6.73778 11.4055 6.44668 10.7027C6.15557 9.99989 6.0794 9.22656 6.22781 8.48048C6.37621 7.7344 6.74252 7.04908 7.28042 6.51118C7.81831 5.97329 8.50363 5.60698 9.24971 5.45857C9.99579 5.31017 10.7691 5.38634 11.4719 5.67744C12.1747 5.96855 12.7754 6.46152 13.198 7.09402C13.6206 7.72651 13.8462 8.47013 13.8462 9.23083C13.8462 10.2509 13.441 11.2292 12.7197 11.9505C11.9984 12.6718 11.0201 13.077 10.0001 13.077C11.2782 13.0766 12.5316 13.4302 13.6212 14.0984C14.7108 14.7667 15.5941 15.7235 16.1732 16.8629C17.5615 15.6142 18.5384 13.9738 18.975 12.1583C19.4116 10.3428 19.2873 8.43759 18.6185 6.6942C17.9498 4.9508 16.7681 3.45121 15.2294 2.3934C13.6907 1.33558 11.8673 0.769291 10.0001 0.769287Z" fill="#2B80FF"/>
<path fill-rule="evenodd" clip-rule="evenodd" d="M10 1.53846C5.32682 1.53846 1.53846 5.32682 1.53846 10C1.53846 14.6732 5.32682 18.4615 10 18.4615C14.6732 18.4615 18.4615 14.6732 18.4615 10C18.4615 5.32682 14.6732 1.53846 10 1.53846ZM0 10C0 4.47715 4.47715 0 10 0C15.5228 0 20 4.47715 20 10C20 15.5228 15.5228 20 10 20C4.47715 20 0 15.5228 0 10Z" fill="#2B80FF"/>
<path fill-rule="evenodd" clip-rule="evenodd" d="M9.99996 6.15385C8.30063 6.15385 6.92304 7.53143 6.92304 9.23077C6.92304 10.9301 8.30063 12.3077 9.99996 12.3077C11.6993 12.3077 13.0769 10.9301 13.0769 9.23077C13.0769 7.53143 11.6993 6.15385 9.99996 6.15385ZM5.38458 9.23077C5.38458 6.68176 7.45096 4.61538 9.99996 4.61538C12.549 4.61538 14.6153 6.68176 14.6153 9.23077C14.6153 11.7798 12.549 13.8462 9.99996 13.8462C7.45096 13.8462 5.38458 11.7798 5.38458 9.23077Z" fill="#2B80FF"/>
<path fill-rule="evenodd" clip-rule="evenodd" d="M9.99996 13.8462C8.86381 13.8462 7.74997 14.1606 6.78146 14.7545C5.81294 15.3485 5.02768 16.1989 4.51261 17.2116C4.32001 17.5903 3.8569 17.7411 3.47823 17.5485C3.09957 17.3559 2.94873 16.8928 3.14133 16.5142C3.78512 15.2484 4.7666 14.1855 5.97714 13.4431C7.18768 12.7007 8.5799 12.3077 9.99996 12.3077C11.42 12.3077 12.8126 12.7006 14.0231 13.4431C15.2336 14.1855 16.2151 15.2484 16.8589 16.5141C17.0515 16.8928 16.9007 17.3559 16.522 17.5485C16.1434 17.7411 15.6803 17.5903 15.4877 17.2116C14.9726 16.1989 14.1873 15.3485 13.2188 14.7545C12.2503 14.1605 11.1361 13.8462 9.99996 13.8462Z" fill="#2B80FF"/>
</svg>
