<svg width="46" height="32" viewBox="0 0 46 32" fill="none" xmlns="http://www.w3.org/2000/svg">
<path fill-rule="evenodd" clip-rule="evenodd" d="M5.57624 11.7312H12.0136C12.8519 11.7312 13.531 12.4057 13.5301 13.239V19.6368C13.5301 20.4691 12.8519 21.1445 12.0136 21.1445H5.57624C4.73791 21.1445 4.05884 20.4691 4.05884 19.6368V13.239C4.05884 12.4066 4.73791 11.7312 5.57624 11.7312ZM10.9752 17.3272C11.3107 17.4501 11.6114 17.5601 11.857 17.6419C13.1994 18.0878 13.5207 18.1189 13.5299 18.1198C13.53 18.1198 13.5301 18.1198 13.5301 18.1198V19.5747C13.5301 19.5747 11.067 18.5536 9.82245 17.9594C8.98859 18.9795 7.91227 19.5985 6.7948 19.5985C4.9052 19.5985 4.2637 17.9549 5.1584 16.8731C5.35344 16.6368 5.68537 16.4119 6.20072 16.2858C7.00595 16.0892 8.28894 16.4084 9.49052 16.8025C9.70614 16.4066 9.88866 15.9702 10.0238 15.5064H6.31971V15.1334H8.22989V14.4651H5.9171V14.0921H8.22989V13.1389C8.22989 13.1389 8.22989 12.9785 8.39362 12.9785H9.32679V14.093H11.6136V14.4659H9.32679V15.1343H11.194C11.0151 15.8617 10.7431 16.531 10.4031 17.1191C10.6019 17.1906 10.7936 17.2608 10.9752 17.3272ZM5.43754 17.1852C4.70926 17.8165 5.14498 18.9698 6.61854 18.9698C7.47477 18.9698 8.33099 18.4258 9.00291 17.5546C8.04648 17.0909 7.23588 16.7593 6.36087 16.8449C6.12467 16.8678 5.6809 16.9718 5.43754 17.1852Z" fill="white"/>
<path d="M24.6252 13.1092C24.6252 13.5959 24.9867 13.9239 25.4904 13.9239C25.9941 13.9239 26.3556 13.5959 26.3556 13.1092C26.3556 12.6313 25.9941 12.2944 25.4904 12.2944C24.9867 12.2944 24.6252 12.6313 24.6252 13.1092Z" fill="white"/>
<path d="M23.7127 12.5H22.2114V19.3369H23.7127V12.5Z" fill="white"/>
<path d="M19.5791 12.7344H17.5642L15.3123 19.3377H16.6999L17.0802 18.045H19.4654L19.8269 19.3377H21.6038L19.5791 12.7344ZM17.3933 16.9676L18.2862 13.9238H18.3238L19.1693 16.9676H17.3933Z" fill="white"/>
<path d="M26.241 14.3171H24.7397V19.3377H26.241V14.3171Z" fill="white"/>
<path d="M41.9322 14.3268L41.9411 14.3171H40.5257L39.6319 17.3706H39.5845L38.5583 14.3171H36.8762L38.9 19.3562L38.0545 20.8922V20.9292H39.3751L41.9322 14.3268Z" fill="white"/>
<path d="M29.9765 14.2144C29.4254 14.2144 28.9977 14.4207 28.5128 14.8139V14.3175H27.0115V20.9296H28.5128V19.2905C28.7982 19.3654 29.0639 19.4033 29.3869 19.4033C30.7271 19.4033 31.9341 18.429 31.9341 16.6964C31.9341 15.1419 31.06 14.2144 29.9765 14.2144ZM29.0254 18.4758C28.8545 18.4758 28.6926 18.4572 28.5119 18.4008V15.6851C28.8259 15.4699 29.0818 15.3668 29.4048 15.3668C29.9658 15.3668 30.4122 15.8068 30.4122 16.744C30.4131 17.9423 29.7573 18.4758 29.0254 18.4758Z" fill="white"/>
<path d="M36.5809 18.0825V15.9849C36.5809 14.8421 35.8965 14.2144 34.6895 14.2144C33.9192 14.2144 33.3878 14.3457 32.4179 14.6358L32.6836 15.7882C33.5676 15.395 33.9568 15.2266 34.3657 15.2266C34.8595 15.2266 35.0787 15.5731 35.0787 16.1074V16.1445C33.3582 16.4628 32.8259 16.6409 32.4939 16.9689C32.247 17.2122 32.1423 17.5588 32.1423 17.9617C32.1423 18.9263 32.9028 19.4412 33.615 19.4412C34.1474 19.4412 34.575 19.2446 35.1548 18.8135L35.2595 19.3381H36.7608L36.5809 18.0825ZM35.0796 18.1204C34.6806 18.3356 34.4524 18.4202 34.1867 18.4202C33.8253 18.4202 33.5971 18.1857 33.5971 17.8118C33.5971 17.6716 33.6257 17.5305 33.7394 17.4186C33.9201 17.2405 34.2717 17.1091 35.0796 16.9221V18.1204Z" fill="white"/>
</svg>
