<svg width="46" height="32" viewBox="0 0 46 32" fill="none" xmlns="http://www.w3.org/2000/svg">
<path fill-rule="evenodd" clip-rule="evenodd" d="M8.24673 11.3333L3.94287 20.9956H9.09519L9.73393 19.455H11.1939L11.8327 20.9956H17.5039V19.8198L18.0093 20.9956H20.9429L21.4482 19.7949V20.9956H33.2429L34.6771 19.495L36.02 20.9956L42.078 21.008L37.7605 16.1914L42.078 11.3333H36.114L34.7179 12.8061L33.4172 11.3333H20.5862L19.4844 13.8272L18.3567 11.3333H13.2152V12.4691L12.6432 11.3333H8.24673ZM9.24367 12.705H11.7552L14.6099 19.2571V12.705H17.3611L19.5661 17.4028L21.5982 12.705H24.3357V19.6384H22.67L22.6564 14.2054L20.228 19.6384H18.7379L16.2959 14.2054V19.6384H12.8692L12.2196 18.084H8.7098L8.0615 19.637H6.2255L9.24367 12.705ZM32.6327 12.705H25.8596V19.6343H32.5278L34.6771 17.3378L36.7486 19.6343H38.9142L35.7666 16.1897L38.9142 12.705H36.8426L34.7043 14.9751L32.6327 12.705ZM10.4654 13.8783L9.30909 16.6473H11.6204L10.4654 13.8783ZM27.5322 15.4066V14.141V14.1397H31.7584L33.6025 16.1639L31.6767 18.1991H27.5322V16.8173H31.2272V15.4066H27.5322Z" fill="white"/>
</svg>
