<svg width="46" height="32" viewBox="0 0 46 32" fill="none" xmlns="http://www.w3.org/2000/svg">
<path fill-rule="evenodd" clip-rule="evenodd" d="M31.3884 16.0002C31.3884 20.4185 27.754 24.0002 23.2707 24.0002C18.7875 24.0002 15.1531 20.4185 15.1531 16.0002C15.1531 11.582 18.7875 8.00024 23.2707 8.00024C27.754 8.00024 31.3884 11.582 31.3884 16.0002ZM25.2209 13.028C26.3501 13.4102 27.1761 13.9824 27.0141 15.0473C26.8964 15.8271 26.4561 16.2042 25.8711 16.3363C26.6737 16.7464 26.9472 17.5248 26.6931 18.4661C26.2105 19.8206 25.0635 19.9346 23.5379 19.6515L23.1674 21.1075L22.2731 20.8885L22.6385 19.4519C22.4066 19.3954 22.1697 19.3349 21.9256 19.2704L21.5587 20.7139L20.6654 20.4948L21.0354 19.0358L19.2341 18.5896L19.6784 17.5842C19.6784 17.5842 20.3378 17.7558 20.3286 17.7433C20.5819 17.8048 20.6945 17.6427 20.7388 17.5352L21.7427 13.5832C21.7539 13.3967 21.6881 13.1616 21.3258 13.0725C21.3396 13.063 20.6761 12.914 20.6761 12.914L20.9141 11.9761L22.718 12.4148L23.0848 10.9722L23.9786 11.1913L23.6194 12.6054C23.8599 12.6589 24.1014 12.7134 24.3363 12.7709L24.693 11.3659L25.5873 11.585L25.2209 13.028ZM23.0812 15.4348C23.6903 15.594 25.0159 15.9403 25.247 15.0323C25.4827 14.1032 24.1948 13.8226 23.5643 13.6852C23.4928 13.6696 23.4298 13.6559 23.3784 13.6432L22.933 15.3969C22.9754 15.4072 23.0253 15.4202 23.0811 15.4348L23.0812 15.4348ZM22.3909 18.2585C23.1205 18.448 24.7163 18.8622 24.9702 17.8616C25.2301 16.8384 23.6829 16.4977 22.928 16.3314C22.8437 16.3128 22.7692 16.2964 22.7083 16.2815L22.2171 18.2142C22.267 18.2264 22.3255 18.2416 22.3909 18.2585Z" fill="white"/>
</svg>
