<svg width="58" height="48" viewBox="0 0 58 48" fill="none" xmlns="http://www.w3.org/2000/svg">
<mask id="path-1-inside-1" fill="white">
<path d="M31.8255 38.1417C32.2141 38.1555 32.5826 38.3179 32.8549 38.5954C33.128 38.882 33.2782 39.2639 33.2737 39.6597C33.2645 40.0454 33.1037 40.4119 32.826 40.6798C32.5484 40.9476 32.1763 41.0952 31.7906 41.0905H25.928C25.5519 41.0962 25.1878 40.9588 24.9092 40.7061C24.6306 40.4534 24.4584 40.1044 24.4275 39.7295C24.4086 39.5349 24.4299 39.3386 24.4899 39.1525C24.5499 38.9664 24.6474 38.7946 24.7764 38.6477C25.037 38.3564 25.399 38.1754 25.7884 38.1417H31.8255ZM30.8484 28.4929C30.853 27.0135 31.4427 25.596 32.4888 24.5499C33.5349 23.5038 34.9524 22.9141 36.4318 22.9095C37.9126 22.9095 39.3328 23.4977 40.3799 24.5448C41.427 25.5919 42.0152 27.0121 42.0152 28.4929C42.0152 29.9753 41.4275 31.3973 40.381 32.4471C39.3344 33.497 37.9142 34.0891 36.4318 34.0938C34.9554 34.0892 33.5405 33.5019 32.4949 32.4595C31.4493 31.4172 30.8576 30.0042 30.8484 28.5278V28.4929ZM33.7971 28.4929C33.7901 28.8424 33.8532 29.1899 33.9827 29.5146C34.1122 29.8394 34.3055 30.1349 34.551 30.3837C34.7966 30.6326 35.0896 30.8297 35.4126 30.9634C35.7356 31.0972 36.0822 31.1649 36.4318 31.1625C36.7807 31.1648 37.1267 31.0978 37.4495 30.9653C37.7723 30.8328 38.0656 30.6376 38.3123 30.3908C38.5591 30.1441 38.7543 29.8508 38.8868 29.528C39.0192 29.2052 39.0863 28.8593 39.0839 28.5103C39.0794 28.1666 39.0072 27.8272 38.8714 27.5114C38.7357 27.1956 38.539 26.9096 38.2928 26.6698C38.0465 26.43 37.7554 26.2411 37.4361 26.1138C37.1168 25.9865 36.7755 25.9234 36.4318 25.928C36.0881 25.9257 35.7473 25.9911 35.4289 26.1205C35.1105 26.2499 34.8207 26.4408 34.576 26.6822C34.3314 26.9236 34.1367 27.2109 34.003 27.5275C33.8694 27.8442 33.7994 28.1841 33.7971 28.5278V28.4929ZM15.6685 28.4929C15.6753 27.7544 15.8281 27.0245 16.1181 26.3453C16.4081 25.6661 16.8295 25.0509 17.3582 24.5353C17.8869 24.0196 18.5123 23.6135 19.1985 23.3405C19.8847 23.0675 20.6181 22.9328 21.3566 22.9444C22.8374 22.9444 24.2576 23.5326 25.3047 24.5797C26.3517 25.6268 26.94 27.047 26.94 28.5278C26.94 30.0102 26.3523 31.4322 25.3057 32.482C24.2591 33.5319 22.839 34.124 21.3566 34.1287C20.6138 34.1402 19.8761 34.0039 19.1864 33.7276C18.4968 33.4513 17.869 33.0406 17.3397 32.5194C16.8103 31.9981 16.3899 31.3768 16.103 30.6915C15.8161 30.0062 15.6684 29.2707 15.6685 28.5278V28.4929ZM18.6347 28.4929C18.6272 28.85 18.693 29.2048 18.8278 29.5355C18.9626 29.8662 19.1637 30.1658 19.4187 30.4159C19.6737 30.666 19.9772 30.8612 20.3104 30.9896C20.6437 31.118 20.9997 31.1768 21.3566 31.1625C21.7047 31.1648 22.0498 31.0977 22.3717 30.965C22.6935 30.8324 22.9857 30.6368 23.231 30.3898C23.4764 30.1429 23.67 29.8494 23.8005 29.5267C23.9311 29.204 23.9959 28.8584 23.9913 28.5103C23.9821 27.8192 23.6999 27.1598 23.2063 26.676C22.7127 26.1922 22.0477 25.9233 21.3566 25.928C21.0056 25.914 20.6555 25.9707 20.3269 26.0948C19.9983 26.2189 19.6981 26.4079 19.4441 26.6505C19.1902 26.8931 18.9876 27.1843 18.8485 27.5068C18.7095 27.8294 18.6367 28.1766 18.6347 28.5278V28.4929ZM7.18865 43.1145V39.1014H6.83969C5.01297 39.0648 3.27342 38.3134 1.99459 37.0085C0.715757 35.7036 -0.000365313 33.9492 1.39805e-07 32.1221C-0.000365313 30.295 0.715757 28.5407 1.99459 27.2357C3.27342 25.9308 5.01297 25.1794 6.83969 25.1428H7.18865V21.1298C7.19325 19.8355 7.70945 18.5955 8.62466 17.6803C9.53987 16.7651 10.7798 16.2489 12.0741 16.2443H27.2541V11.1843L27.0272 11.097C25.8985 10.7211 24.9144 10.0037 24.2111 9.0441C23.5078 8.08449 23.12 6.93006 23.1014 5.74046C23.106 4.21639 23.7147 2.75632 24.794 1.68028C25.8733 0.604234 27.3352 -6.99753e-06 28.8593 0C30.3834 -6.99753e-06 31.8453 0.604234 32.9246 1.68028C34.0039 2.75632 34.6126 4.21639 34.6172 5.74046C34.6044 6.98039 34.1941 8.18351 33.4466 9.17287C32.6991 10.1622 31.6538 10.8856 30.4645 11.2366H30.2203V16.2443H45.6096C46.9069 16.2443 48.1513 16.7584 49.0703 17.6741C49.9893 18.5898 50.5079 19.8324 50.5125 21.1298V25.1428H50.8615C52.6912 25.1749 54.4352 25.9243 55.7178 27.2297C57.0004 28.5351 57.7189 30.2921 57.7186 32.1221C57.7189 33.9522 57.0004 35.7091 55.7178 37.0145C54.4352 38.3199 52.6912 39.0694 50.8615 39.1014H50.5125V43.1145C50.5125 43.7575 50.3856 44.3942 50.139 44.9881C49.8923 45.582 49.5309 46.1213 49.0754 46.5752C48.6199 47.0291 48.0793 47.3886 47.4845 47.6331C46.8898 47.8776 46.2526 48.0023 45.6096 48H12.0741C10.7784 48 9.53579 47.4852 8.61958 46.569C7.70337 45.6528 7.18865 44.4102 7.18865 43.1145ZM50.53 36.1352H50.8789C51.396 36.1284 51.9066 36.0195 52.3814 35.8148C52.8563 35.6101 53.286 35.3135 53.6459 34.9423C54.0059 34.571 54.2889 34.1323 54.4788 33.6513C54.6687 33.1703 54.7617 32.6566 54.7524 32.1396C54.7617 31.6225 54.6687 31.1088 54.4788 30.6278C54.2889 30.1469 54.0059 29.7081 53.6459 29.3369C53.286 28.9656 52.8563 28.6691 52.3814 28.4644C51.9066 28.2596 51.396 28.1507 50.8789 28.1439H50.53V36.1352ZM28.8593 8.47982C29.228 8.48217 29.5936 8.41098 29.9345 8.27042C30.2754 8.12986 30.5848 7.92275 30.8448 7.66119C31.1047 7.39964 31.3099 7.08889 31.4483 6.74711C31.5867 6.40533 31.6557 6.03938 31.651 5.67066C31.6557 5.30275 31.5867 4.93762 31.4481 4.5968C31.3094 4.25598 31.104 3.94636 30.8438 3.68618C30.5836 3.42601 30.274 3.22055 29.9332 3.08191C29.5923 2.94327 29.2272 2.87427 28.8593 2.87895C28.4906 2.87431 28.1246 2.94321 27.7829 3.08165C27.4411 3.22008 27.1303 3.42526 26.8688 3.68519C26.6072 3.94512 26.4001 4.25459 26.2595 4.5955C26.119 4.93641 26.0478 5.30192 26.0501 5.67066C26.0478 6.04021 26.1189 6.40655 26.2593 6.74842C26.3996 7.09029 26.6064 7.40089 26.8678 7.6622C27.1291 7.92352 27.4397 8.13035 27.7815 8.27071C28.1234 8.41106 28.4897 8.48214 28.8593 8.47982ZM10.1374 43.1145C10.1229 43.3759 10.1626 43.6374 10.2539 43.8828C10.3452 44.1281 10.4861 44.352 10.6679 44.5403C10.8498 44.7287 11.0685 44.8775 11.3105 44.9774C11.5524 45.0773 11.8124 45.1262 12.0741 45.121H45.6096C45.8698 45.1238 46.1279 45.0731 46.3678 44.9721C46.6077 44.8711 46.8243 44.722 47.0043 44.5339C47.1842 44.3458 47.3236 44.1227 47.4138 43.8786C47.504 43.6344 47.5432 43.3744 47.5289 43.1145V21.1995C47.5337 20.9424 47.4863 20.687 47.3896 20.4487C47.2928 20.2103 47.1488 19.9941 46.9661 19.8131C46.7834 19.6321 46.5659 19.4899 46.3268 19.3954C46.0876 19.3008 45.8318 19.2557 45.5747 19.2628H12.0741C11.8185 19.2581 11.5645 19.3049 11.3274 19.4006C11.0903 19.4962 10.8749 19.6387 10.6941 19.8195C10.5133 20.0003 10.3708 20.2157 10.2752 20.4528C10.1795 20.6899 10.1327 20.9439 10.1374 21.1995V43.1145ZM7.18865 36.1352V28.109H6.82224C5.77943 28.1274 4.78637 28.5581 4.06041 29.307C3.33446 30.0558 2.93474 31.0618 2.94875 32.1047C2.93474 33.1475 3.33446 34.1535 4.06041 34.9023C4.78637 35.6512 5.77943 36.0819 6.82224 36.1003L7.18865 36.1352Z"/>
</mask>
<path d="M31.8255 38.1417C32.2141 38.1555 32.5826 38.3179 32.8549 38.5954C33.128 38.882 33.2782 39.2639 33.2737 39.6597C33.2645 40.0454 33.1037 40.4119 32.826 40.6798C32.5484 40.9476 32.1763 41.0952 31.7906 41.0905H25.928C25.5519 41.0962 25.1878 40.9588 24.9092 40.7061C24.6306 40.4534 24.4584 40.1044 24.4275 39.7295C24.4086 39.5349 24.4299 39.3386 24.4899 39.1525C24.5499 38.9664 24.6474 38.7946 24.7764 38.6477C25.037 38.3564 25.399 38.1754 25.7884 38.1417H31.8255ZM30.8484 28.4929C30.853 27.0135 31.4427 25.596 32.4888 24.5499C33.5349 23.5038 34.9524 22.9141 36.4318 22.9095C37.9126 22.9095 39.3328 23.4977 40.3799 24.5448C41.427 25.5919 42.0152 27.0121 42.0152 28.4929C42.0152 29.9753 41.4275 31.3973 40.381 32.4471C39.3344 33.497 37.9142 34.0891 36.4318 34.0938C34.9554 34.0892 33.5405 33.5019 32.4949 32.4595C31.4493 31.4172 30.8576 30.0042 30.8484 28.5278V28.4929ZM33.7971 28.4929C33.7901 28.8424 33.8532 29.1899 33.9827 29.5146C34.1122 29.8394 34.3055 30.1349 34.551 30.3837C34.7966 30.6326 35.0896 30.8297 35.4126 30.9634C35.7356 31.0972 36.0822 31.1649 36.4318 31.1625C36.7807 31.1648 37.1267 31.0978 37.4495 30.9653C37.7723 30.8328 38.0656 30.6376 38.3123 30.3908C38.5591 30.1441 38.7543 29.8508 38.8868 29.528C39.0192 29.2052 39.0863 28.8593 39.0839 28.5103C39.0794 28.1666 39.0072 27.8272 38.8714 27.5114C38.7357 27.1956 38.539 26.9096 38.2928 26.6698C38.0465 26.43 37.7554 26.2411 37.4361 26.1138C37.1168 25.9865 36.7755 25.9234 36.4318 25.928C36.0881 25.9257 35.7473 25.9911 35.4289 26.1205C35.1105 26.2499 34.8207 26.4408 34.576 26.6822C34.3314 26.9236 34.1367 27.2109 34.003 27.5275C33.8694 27.8442 33.7994 28.1841 33.7971 28.5278V28.4929ZM15.6685 28.4929C15.6753 27.7544 15.8281 27.0245 16.1181 26.3453C16.4081 25.6661 16.8295 25.0509 17.3582 24.5353C17.8869 24.0196 18.5123 23.6135 19.1985 23.3405C19.8847 23.0675 20.6181 22.9328 21.3566 22.9444C22.8374 22.9444 24.2576 23.5326 25.3047 24.5797C26.3517 25.6268 26.94 27.047 26.94 28.5278C26.94 30.0102 26.3523 31.4322 25.3057 32.482C24.2591 33.5319 22.839 34.124 21.3566 34.1287C20.6138 34.1402 19.8761 34.0039 19.1864 33.7276C18.4968 33.4513 17.869 33.0406 17.3397 32.5194C16.8103 31.9981 16.3899 31.3768 16.103 30.6915C15.8161 30.0062 15.6684 29.2707 15.6685 28.5278V28.4929ZM18.6347 28.4929C18.6272 28.85 18.693 29.2048 18.8278 29.5355C18.9626 29.8662 19.1637 30.1658 19.4187 30.4159C19.6737 30.666 19.9772 30.8612 20.3104 30.9896C20.6437 31.118 20.9997 31.1768 21.3566 31.1625C21.7047 31.1648 22.0498 31.0977 22.3717 30.965C22.6935 30.8324 22.9857 30.6368 23.231 30.3898C23.4764 30.1429 23.67 29.8494 23.8005 29.5267C23.9311 29.204 23.9959 28.8584 23.9913 28.5103C23.9821 27.8192 23.6999 27.1598 23.2063 26.676C22.7127 26.1922 22.0477 25.9233 21.3566 25.928C21.0056 25.914 20.6555 25.9707 20.3269 26.0948C19.9983 26.2189 19.6981 26.4079 19.4441 26.6505C19.1902 26.8931 18.9876 27.1843 18.8485 27.5068C18.7095 27.8294 18.6367 28.1766 18.6347 28.5278V28.4929ZM7.18865 43.1145V39.1014H6.83969C5.01297 39.0648 3.27342 38.3134 1.99459 37.0085C0.715757 35.7036 -0.000365313 33.9492 1.39805e-07 32.1221C-0.000365313 30.295 0.715757 28.5407 1.99459 27.2357C3.27342 25.9308 5.01297 25.1794 6.83969 25.1428H7.18865V21.1298C7.19325 19.8355 7.70945 18.5955 8.62466 17.6803C9.53987 16.7651 10.7798 16.2489 12.0741 16.2443H27.2541V11.1843L27.0272 11.097C25.8985 10.7211 24.9144 10.0037 24.2111 9.0441C23.5078 8.08449 23.12 6.93006 23.1014 5.74046C23.106 4.21639 23.7147 2.75632 24.794 1.68028C25.8733 0.604234 27.3352 -6.99753e-06 28.8593 0C30.3834 -6.99753e-06 31.8453 0.604234 32.9246 1.68028C34.0039 2.75632 34.6126 4.21639 34.6172 5.74046C34.6044 6.98039 34.1941 8.18351 33.4466 9.17287C32.6991 10.1622 31.6538 10.8856 30.4645 11.2366H30.2203V16.2443H45.6096C46.9069 16.2443 48.1513 16.7584 49.0703 17.6741C49.9893 18.5898 50.5079 19.8324 50.5125 21.1298V25.1428H50.8615C52.6912 25.1749 54.4352 25.9243 55.7178 27.2297C57.0004 28.5351 57.7189 30.2921 57.7186 32.1221C57.7189 33.9522 57.0004 35.7091 55.7178 37.0145C54.4352 38.3199 52.6912 39.0694 50.8615 39.1014H50.5125V43.1145C50.5125 43.7575 50.3856 44.3942 50.139 44.9881C49.8923 45.582 49.5309 46.1213 49.0754 46.5752C48.6199 47.0291 48.0793 47.3886 47.4845 47.6331C46.8898 47.8776 46.2526 48.0023 45.6096 48H12.0741C10.7784 48 9.53579 47.4852 8.61958 46.569C7.70337 45.6528 7.18865 44.4102 7.18865 43.1145ZM50.53 36.1352H50.8789C51.396 36.1284 51.9066 36.0195 52.3814 35.8148C52.8563 35.6101 53.286 35.3135 53.6459 34.9423C54.0059 34.571 54.2889 34.1323 54.4788 33.6513C54.6687 33.1703 54.7617 32.6566 54.7524 32.1396C54.7617 31.6225 54.6687 31.1088 54.4788 30.6278C54.2889 30.1469 54.0059 29.7081 53.6459 29.3369C53.286 28.9656 52.8563 28.6691 52.3814 28.4644C51.9066 28.2596 51.396 28.1507 50.8789 28.1439H50.53V36.1352ZM28.8593 8.47982C29.228 8.48217 29.5936 8.41098 29.9345 8.27042C30.2754 8.12986 30.5848 7.92275 30.8448 7.66119C31.1047 7.39964 31.3099 7.08889 31.4483 6.74711C31.5867 6.40533 31.6557 6.03938 31.651 5.67066C31.6557 5.30275 31.5867 4.93762 31.4481 4.5968C31.3094 4.25598 31.104 3.94636 30.8438 3.68618C30.5836 3.42601 30.274 3.22055 29.9332 3.08191C29.5923 2.94327 29.2272 2.87427 28.8593 2.87895C28.4906 2.87431 28.1246 2.94321 27.7829 3.08165C27.4411 3.22008 27.1303 3.42526 26.8688 3.68519C26.6072 3.94512 26.4001 4.25459 26.2595 4.5955C26.119 4.93641 26.0478 5.30192 26.0501 5.67066C26.0478 6.04021 26.1189 6.40655 26.2593 6.74842C26.3996 7.09029 26.6064 7.40089 26.8678 7.6622C27.1291 7.92352 27.4397 8.13035 27.7815 8.27071C28.1234 8.41106 28.4897 8.48214 28.8593 8.47982ZM10.1374 43.1145C10.1229 43.3759 10.1626 43.6374 10.2539 43.8828C10.3452 44.1281 10.4861 44.352 10.6679 44.5403C10.8498 44.7287 11.0685 44.8775 11.3105 44.9774C11.5524 45.0773 11.8124 45.1262 12.0741 45.121H45.6096C45.8698 45.1238 46.1279 45.0731 46.3678 44.9721C46.6077 44.8711 46.8243 44.722 47.0043 44.5339C47.1842 44.3458 47.3236 44.1227 47.4138 43.8786C47.504 43.6344 47.5432 43.3744 47.5289 43.1145V21.1995C47.5337 20.9424 47.4863 20.687 47.3896 20.4487C47.2928 20.2103 47.1488 19.9941 46.9661 19.8131C46.7834 19.6321 46.5659 19.4899 46.3268 19.3954C46.0876 19.3008 45.8318 19.2557 45.5747 19.2628H12.0741C11.8185 19.2581 11.5645 19.3049 11.3274 19.4006C11.0903 19.4962 10.8749 19.6387 10.6941 19.8195C10.5133 20.0003 10.3708 20.2157 10.2752 20.4528C10.1795 20.6899 10.1327 20.9439 10.1374 21.1995V43.1145ZM7.18865 36.1352V28.109H6.82224C5.77943 28.1274 4.78637 28.5581 4.06041 29.307C3.33446 30.0558 2.93474 31.0618 2.94875 32.1047C2.93474 33.1475 3.33446 34.1535 4.06041 34.9023C4.78637 35.6512 5.77943 36.0819 6.82224 36.1003L7.18865 36.1352Z" fill="#2B80FF" stroke="#030C2E" stroke-width="0.6" mask="url(#path-1-inside-1)"/>
</svg>
