<svg width="46" height="32" viewBox="0 0 46 32" fill="none" xmlns="http://www.w3.org/2000/svg">
<path fill-rule="evenodd" clip-rule="evenodd" d="M39.7679 12.1478C41.1822 12.1478 41.96 12.7925 41.96 14.0103C42.0307 14.9416 41.3943 15.7296 40.5458 15.8728L42.455 18.5234H40.97L39.3437 15.9445H39.2023V18.5234H38.0002V12.1478H39.7679ZM39.2022 15.0852H39.5558C40.3336 15.0852 40.6872 14.727 40.6872 14.0823C40.6872 13.5092 40.3336 13.151 39.5558 13.151H39.2022V15.0852ZM33.8282 18.5234H37.2223V17.4488H35.0303V15.7296H37.1516V14.655H35.0303V13.2223H37.2223V12.1478H33.8282V18.5234V18.5234ZM30.2926 16.4459L28.6663 12.1478H27.3935L30.0098 18.6667H30.6462L33.2625 12.1478H31.9897L30.2926 16.4459V16.4459ZM15.9383 15.3712C15.9383 17.1621 17.3525 18.6665 19.1203 18.6665C19.686 18.6665 20.181 18.5232 20.6759 18.3083V16.8756C20.3224 17.3054 19.8274 17.5919 19.2617 17.5919C18.1303 17.5919 17.2111 16.7323 17.2111 15.5861V15.4428C17.1404 14.2967 18.0596 13.2938 19.191 13.2221C19.7567 13.2221 20.3224 13.5087 20.6759 13.9385V12.5058C20.2517 12.2192 19.686 12.1476 19.191 12.1476C17.3525 12.0043 15.9383 13.5087 15.9383 15.3712V15.3712ZM13.7463 14.5834C13.0392 14.2969 12.827 14.1536 12.827 13.7954C12.8977 13.3656 13.2513 13.0074 13.6756 13.0791C14.0291 13.0791 14.3827 13.294 14.6655 13.5805L15.3019 12.7209C14.8069 12.2911 14.1705 12.0045 13.5341 12.0045C12.5442 11.9329 11.6956 12.7209 11.6249 13.7238V13.7954C11.6249 14.6551 11.9785 15.1565 13.1099 15.5147C13.3927 15.5863 13.6756 15.7296 13.9584 15.8729C14.1705 16.0161 14.312 16.231 14.312 16.5176C14.312 17.019 13.8877 17.4489 13.4634 17.4489H13.3927C12.827 17.4489 12.332 17.0907 12.1199 16.5892L11.3421 17.3772C11.7664 18.1652 12.6149 18.595 13.4634 18.595C14.5948 18.6667 15.514 17.807 15.5848 16.6609V16.446C15.514 15.5863 15.1605 15.1565 13.7463 14.5834V14.5834ZM9.64502 18.5234H10.8471V12.1478H9.64502V18.5234V18.5234ZM4.05884 12.1478H5.82662H6.18017C7.87724 12.2194 9.22075 13.6521 9.15004 15.3714C9.15004 16.3027 8.72577 17.1623 8.01866 17.807C7.38226 18.3085 6.60444 18.595 5.82662 18.5234H4.05884V12.1478ZM5.61448 17.4487C6.18017 17.5204 6.81657 17.3055 7.24083 16.9473C7.6651 16.5175 7.87723 15.9444 7.87723 15.2997C7.87723 14.7266 7.6651 14.1535 7.24083 13.7237C6.81657 13.3655 6.18017 13.1506 5.61448 13.2222H5.26092V17.4487H5.61448Z" fill="white"/>
<path fill-rule="evenodd" clip-rule="evenodd" d="M24.2823 12C22.5145 12 21.0295 13.4327 21.0295 15.2953C21.0295 17.0862 22.4438 18.5905 24.2823 18.6621C26.1207 18.7338 27.535 17.2294 27.6057 15.3669C27.535 13.5044 26.1207 12 24.2823 12V12Z" fill="white"/>
</svg>
