<svg width="40" height="48" viewBox="0 0 40 48" fill="none" xmlns="http://www.w3.org/2000/svg">
<path d="M14.1006 47.1563C14.0153 47.3918 13.8596 47.5975 13.6532 47.7473C13.4469 47.8971 13.1993 47.9842 12.9417 47.9977C12.6842 48.0111 12.4283 47.9503 12.2065 47.8228C11.9847 47.6954 11.807 47.5071 11.6959 47.2818C11.5849 47.0566 11.5454 46.8045 11.5826 46.5575C11.6197 46.3105 11.7318 46.0797 11.9047 45.8945C12.0775 45.7092 12.3033 45.5778 12.5534 45.5168C12.8035 45.4559 13.0667 45.4681 13.3096 45.5521C13.633 45.6651 13.8973 45.8968 14.0454 46.1971C14.1934 46.4973 14.2133 46.8419 14.1006 47.1563ZM6.29011 45.5521C6.04734 45.4685 5.78441 45.4565 5.53457 45.5175C5.28474 45.5786 5.05922 45.7099 4.88657 45.895C4.71391 46.0801 4.60187 46.3106 4.56461 46.5573C4.52735 46.8041 4.56656 47.0559 4.67727 47.2811C4.78797 47.5063 4.96521 47.6946 5.18655 47.8222C5.40789 47.9499 5.66339 48.0112 5.92072 47.9983C6.17806 47.9854 6.42566 47.899 6.63222 47.7499C6.83877 47.6009 6.99499 47.3958 7.08111 47.1608C7.19649 46.846 7.17799 46.4997 7.02967 46.1981C6.88136 45.8964 6.61535 45.6641 6.29011 45.5521ZM20.4334 45.5521C20.1906 45.4685 19.9277 45.4565 19.6778 45.5175C19.428 45.5786 19.2025 45.7099 19.0298 45.895C18.8572 46.0801 18.7451 46.3106 18.7079 46.5573C18.6706 46.8041 18.7098 47.0559 18.8205 47.2811C18.9313 47.5063 19.1085 47.6946 19.3298 47.8222C19.5512 47.9499 19.8067 48.0112 20.064 47.9983C20.3213 47.9854 20.5689 47.899 20.7755 47.7499C20.982 47.6009 21.1383 47.3958 21.2244 47.1608C21.3398 46.846 21.3213 46.4997 21.173 46.1981C21.0246 45.8964 20.7586 45.6641 20.4334 45.5521ZM27.4529 45.5521C27.2102 45.4685 26.9472 45.4565 26.6974 45.5175C26.4476 45.5786 26.222 45.7099 26.0494 45.895C25.8767 46.0801 25.7647 46.3106 25.7274 46.5573C25.6902 46.8041 25.7294 47.0559 25.8401 47.2811C25.9508 47.5063 26.128 47.6946 26.3494 47.8222C26.5707 47.9499 26.8262 48.0112 27.0835 47.9983C27.3409 47.9854 27.5885 47.899 27.795 47.7499C28.0016 47.6009 28.1578 47.3958 28.2439 47.1608C28.3593 46.846 28.3408 46.4997 28.1925 46.1981C28.0442 45.8964 27.7782 45.6641 27.4529 45.5521ZM34.5814 45.5521C34.3386 45.4685 34.0757 45.4565 33.8259 45.5175C33.576 45.5786 33.3505 45.7099 33.1779 45.895C33.0052 46.0801 32.8932 46.3106 32.8559 46.5573C32.8186 46.8041 32.8579 47.0559 32.9686 47.2811C33.0793 47.5063 33.2565 47.6946 33.4778 47.8222C33.6992 47.9499 33.9547 48.0112 34.212 47.9983C34.4693 47.9854 34.717 47.899 34.9235 47.7499C35.1301 47.6009 35.2863 47.3958 35.3724 47.1608C35.4878 46.846 35.4693 46.4997 35.321 46.1981C35.1726 45.8964 34.9066 45.6641 34.5814 45.5521ZM0.00473641 19.3601C0.00286264 15.5323 1.17423 11.7899 3.37067 8.60633C5.56711 5.42278 8.68993 2.9411 12.3441 1.4752C15.9983 0.0093068 20.0197 -0.374946 23.8996 0.371049C27.7796 1.11704 31.3437 2.95977 34.1411 5.66614C36.9386 8.37251 38.8438 11.8209 39.6156 15.5752C40.3875 19.3294 39.9913 23.2209 38.4773 26.7573C36.9633 30.2936 34.3994 33.3161 31.11 35.4422C27.8206 37.5684 23.9534 38.7028 19.9976 38.7018C14.6939 38.7018 9.60745 36.6631 5.85717 33.0341C2.10689 29.4051 0 24.4831 0 19.3509L0.00473641 19.3601ZM30.508 33.0185C28.752 31.8418 26.7985 30.9687 24.7342 30.4381C24.4194 30.3578 24.1405 30.1799 23.9403 29.9315C23.7401 29.6831 23.6296 29.378 23.6258 29.0631V26.0335C23.6289 25.6493 23.7601 25.2763 24 24.9701C24.8203 23.8458 25.3261 22.5353 25.4683 21.1659C25.4866 21.0087 25.5381 20.8568 25.6196 20.7196C25.701 20.5824 25.8108 20.4629 25.942 20.3684C26.3346 20.0922 26.6545 19.7305 26.8758 19.3125C27.0972 18.8944 27.2137 18.4319 27.2161 17.9622C27.2164 17.8319 27.1637 17.7067 27.0693 17.6138C26.9716 17.5181 26.8388 17.4638 26.6998 17.4626C26.3858 17.4626 26.0846 17.3419 25.8625 17.127C25.6404 16.9121 25.5157 16.6206 25.5157 16.3167V13.8234C25.5166 13.2481 25.3311 12.6871 24.9852 12.2192C24.5798 11.6367 24.0532 11.1426 23.439 10.7684C22.8248 10.3943 22.1367 10.1485 21.4186 10.0467C21.1306 10.013 20.8654 9.87821 20.6733 9.66784C20.4812 9.45747 20.3756 9.18618 20.3766 8.90546V8.05754H19.9597C17.672 8.05754 15.8579 9.89088 15.1379 11.6096C14.9012 12.1935 14.7822 12.8158 14.7874 13.443L14.759 16.3213C14.7568 16.4743 14.723 16.6253 14.6596 16.7654C14.5961 16.9055 14.5043 17.0319 14.3896 17.1372C14.1565 17.3483 13.8467 17.4619 13.5275 17.4534C13.4577 17.4508 13.388 17.462 13.3229 17.4865C13.2577 17.5109 13.1984 17.548 13.1486 17.5955C13.0992 17.642 13.0599 17.6976 13.0331 17.759C13.0063 17.8204 12.9924 17.8863 12.9923 17.953C12.9944 18.4322 13.1156 18.9039 13.3456 19.3282C13.5755 19.7526 13.9076 20.1172 14.3138 20.3913C14.4467 20.4862 14.5576 20.607 14.6392 20.746C14.7207 20.885 14.7713 21.039 14.7874 21.198C14.934 22.5279 15.4226 23.8011 16.2084 24.9014C16.4418 25.2047 16.568 25.5728 16.5684 25.951V29.0264C16.5638 29.3432 16.4513 29.6497 16.2483 29.8983C16.0453 30.1469 15.7633 30.3237 15.4458 30.4014C13.3098 30.9234 11.2883 31.813 9.4778 33.0277C12.5163 35.2188 16.205 36.4016 19.9945 36.3999C23.7839 36.3983 27.4715 35.2123 30.508 33.0185ZM7.64949 31.4876L7.68265 31.4601C9.64131 30.0663 11.8377 29.016 14.1717 28.3572V26.1251C13.2928 24.8752 12.7164 23.4495 12.4855 21.9543C11.8912 21.4591 11.4143 20.8458 11.0874 20.156C10.7604 19.4663 10.591 18.7164 10.5909 17.9576C10.5885 17.5825 10.6654 17.2109 10.8169 16.8657C10.9684 16.5205 11.1913 16.2089 11.4719 15.9501C11.7468 15.7044 12.0686 15.5129 12.4192 15.3863V13.4155C12.4144 12.5041 12.5897 11.6003 12.9355 10.7526C13.9775 8.27754 16.5494 5.77503 19.9503 5.77503H21.5512C21.8653 5.77503 22.1665 5.89576 22.3885 6.11064C22.6106 6.32553 22.7353 6.61698 22.7353 6.92087V7.94296C24.4127 8.44302 25.8675 9.4746 26.8656 10.8717C27.5099 11.7293 27.855 12.7632 27.8508 13.8234V15.4138C28.17 15.553 28.4605 15.7472 28.7081 15.9867C28.9772 16.2444 29.1904 16.5514 29.3352 16.8898C29.48 17.2283 29.5534 17.5913 29.5512 17.9576C29.5485 18.7016 29.3838 19.4367 29.068 20.115C28.7522 20.7934 28.2923 21.3998 27.7182 21.8947C27.4814 23.4436 26.8802 24.9191 25.9609 26.2076V28.4076C28.2438 29.0641 30.3925 30.0968 32.3126 31.4601L32.3694 31.4876L32.5636 31.2997C35.0096 28.8953 36.6638 25.8431 37.3171 22.529C37.9704 19.2149 37.5935 15.7877 36.2341 12.6809C34.8746 9.57402 32.5936 6.92702 29.6796 5.07456C26.7655 3.22211 23.3492 2.24739 19.8627 2.27367C16.3762 2.29995 12.976 3.32604 10.0921 5.22219C7.20822 7.11835 4.97013 9.79941 3.66084 12.9264C2.35156 16.0533 2.02987 19.4857 2.73647 22.7896C3.44307 26.0935 5.14621 29.1204 7.63055 31.4876H7.64949Z" fill="#2B80FF"/>
</svg>
