<svg width="114" height="28" viewBox="0 0 114 28" fill="none" xmlns="http://www.w3.org/2000/svg">
<path d="M29.9631 9.92236H41.4961V12.0704H36.9551V24.179H34.4661V12.0704H29.9441L29.9631 9.92236ZM41.0021 13.8572H43.1301V15.8531H43.1681C43.2441 15.568 43.3771 15.3019 43.5671 15.0358C43.7571 14.7696 43.9851 14.5225 44.2701 14.3134C44.5361 14.0853 44.8401 13.9142 45.1821 13.7812C45.5051 13.6481 45.8471 13.5721 46.1891 13.5721C46.4551 13.5721 46.6451 13.5911 46.7401 13.5911C46.8351 13.6101 46.9491 13.6291 47.0441 13.6291V15.8151C46.8921 15.7771 46.7211 15.7581 46.5501 15.7391C46.3791 15.7201 46.2271 15.7011 46.0561 15.7011C45.6761 15.7011 45.3151 15.7771 44.9731 15.9292C44.6311 16.0812 44.3461 16.3093 44.0801 16.5945C43.8331 16.8986 43.6241 17.2598 43.4721 17.697C43.3201 18.1342 43.2441 18.6474 43.2441 19.2177V24.122H40.9641L41.0021 13.8572ZM57.4941 24.179H55.2521V22.7344H55.2141C54.9291 23.2666 54.5111 23.6658 53.9601 23.9889C53.4091 24.3121 52.8391 24.4642 52.2691 24.4642C50.9201 24.4642 49.9321 24.141 49.3241 23.4567C48.7161 22.7914 48.4121 21.7649 48.4121 20.4153V13.8572H50.6921V20.1872C50.6921 21.0996 50.8631 21.7459 51.2241 22.1071C51.5661 22.4872 52.0601 22.6773 52.6871 22.6773C53.1621 22.6773 53.5611 22.6013 53.8841 22.4492C54.2071 22.2972 54.4731 22.1071 54.6631 21.8599C54.8721 21.6128 55.0051 21.3087 55.1001 20.9665C55.1951 20.6244 55.2331 20.2442 55.2331 19.845V13.8572H57.5131V24.179H57.4941ZM61.3701 20.8715C61.4461 21.5368 61.6931 21.993 62.1301 22.2781C62.5671 22.5443 63.0991 22.6773 63.7071 22.6773C63.9161 22.6773 64.1631 22.6583 64.4291 22.6203C64.6951 22.5823 64.9611 22.5253 65.1891 22.4302C65.4361 22.3352 65.6261 22.2021 65.7781 22.012C65.9301 21.8219 66.0061 21.5938 65.9871 21.3087C65.9681 21.0236 65.8731 20.7764 65.6641 20.5864C65.4551 20.3963 65.2081 20.2632 64.9041 20.1301C64.6001 20.0161 64.2391 19.921 63.8401 19.845C63.4411 19.769 63.0421 19.6739 62.6241 19.5789C62.2061 19.4838 61.7881 19.3698 61.3891 19.2367C60.9901 19.1037 60.6481 18.9326 60.3251 18.6855C60.0211 18.4574 59.7551 18.1722 59.5841 17.8111C59.3941 17.4499 59.2991 17.0317 59.2991 16.4994C59.2991 15.9292 59.4321 15.473 59.7171 15.0928C59.9831 14.7126 60.3441 14.4085 60.7621 14.1804C61.1801 13.9522 61.6551 13.7812 62.1681 13.6861C62.6811 13.5911 63.1751 13.5531 63.6311 13.5531C64.1631 13.5531 64.6761 13.6101 65.1511 13.7241C65.6261 13.8382 66.0821 14.0093 66.4621 14.2754C66.8611 14.5225 67.1841 14.8647 67.4311 15.2639C67.6971 15.663 67.8491 16.1573 67.9251 16.7275H65.5501C65.4361 16.1763 65.1891 15.8151 64.8091 15.625C64.4101 15.4349 63.9731 15.3399 63.4601 15.3399C63.3081 15.3399 63.0991 15.3589 62.8901 15.3779C62.6621 15.4159 62.4721 15.454 62.2631 15.53C62.0731 15.606 61.9021 15.7201 61.7691 15.8531C61.6361 15.9862 61.5601 16.1763 61.5601 16.4044C61.5601 16.6895 61.6551 16.8986 61.8451 17.0697C62.0351 17.2408 62.2821 17.3739 62.6051 17.5069C62.9091 17.621 63.2701 17.716 63.6691 17.792C64.0681 17.8681 64.4861 17.9631 64.9041 18.0582C65.3221 18.1532 65.7211 18.2673 66.1201 18.4003C66.5191 18.5334 66.8801 18.7045 67.1841 18.9516C67.4881 19.1797 67.7541 19.4648 67.9441 19.807C68.1341 20.1492 68.2291 20.5864 68.2291 21.0806C68.2291 21.6889 68.0961 22.2021 67.8111 22.6393C67.5261 23.0575 67.1651 23.4187 66.7281 23.6848C66.2911 23.9509 65.7781 24.141 65.2461 24.2741C64.6951 24.3881 64.1631 24.4642 63.6311 24.4642C62.9851 24.4642 62.3771 24.3881 61.8261 24.2361C61.2751 24.084 60.7811 23.8559 60.3821 23.5708C59.9831 23.2666 59.6601 22.9054 59.4321 22.4492C59.2041 22.012 59.0711 21.4798 59.0521 20.8525H61.3511V20.8715H61.3701ZM68.8751 13.8572H70.6041V10.7397H72.8841V13.8382H74.9361V15.53H72.8841V21.0426C72.8841 21.2897 72.9031 21.4798 72.9221 21.6699C72.9411 21.8409 72.9981 21.993 73.0551 22.1071C73.1311 22.2211 73.2451 22.3162 73.3781 22.3732C73.5301 22.4302 73.7201 22.4682 73.9861 22.4682C74.1381 22.4682 74.3091 22.4682 74.4611 22.4492C74.6131 22.4302 74.7841 22.4112 74.9361 22.3732V24.141C74.6891 24.179 74.4421 24.198 74.1951 24.2171C73.9481 24.2551 73.7201 24.2551 73.4541 24.2551C72.8461 24.2551 72.3711 24.198 72.0101 24.084C71.6491 23.9699 71.3641 23.7989 71.1551 23.5898C70.9461 23.3617 70.8131 23.0955 70.7371 22.7724C70.6611 22.4492 70.6231 22.05 70.6041 21.6318V15.549H68.8751V13.8192V13.8572ZM76.5321 13.8572H78.6791V15.2639H78.7171C79.0401 14.6556 79.4771 14.2374 80.0471 13.9713C80.6171 13.7051 81.2251 13.5721 81.9091 13.5721C82.7261 13.5721 83.4291 13.7051 84.0371 14.0093C84.6451 14.2944 85.1391 14.6746 85.5381 15.1878C85.9371 15.6821 86.2411 16.2713 86.4311 16.9366C86.6211 17.602 86.7351 18.3243 86.7351 19.0656C86.7351 19.769 86.6401 20.4343 86.4691 21.0806C86.2791 21.7269 86.0131 22.3162 85.6521 22.8104C85.2911 23.3046 84.8351 23.7038 84.2651 24.008C83.6951 24.3121 83.0491 24.4642 82.2891 24.4642C81.9661 24.4642 81.6241 24.4262 81.3011 24.3691C80.9781 24.3121 80.6551 24.2171 80.3511 24.084C80.0471 23.9509 79.7621 23.7798 79.5151 23.5708C79.2491 23.3617 79.0401 23.1145 78.8691 22.8484H78.8311V27.9998H76.5511V13.8572H76.5321ZM84.4931 19.0276C84.4931 18.5714 84.4361 18.1152 84.3031 17.678C84.1891 17.2408 83.9991 16.8606 83.7521 16.5184C83.5051 16.1763 83.2011 15.9102 82.8591 15.7011C82.4981 15.492 82.0801 15.3969 81.6241 15.3969C80.6741 15.3969 79.9521 15.7201 79.4581 16.3854C78.9831 17.0507 78.7361 17.9441 78.7361 19.0466C78.7361 19.5789 78.7931 20.0541 78.9261 20.4913C79.0591 20.9285 79.2301 21.3087 79.4961 21.6318C79.7431 21.955 80.0471 22.2021 80.4081 22.3922C80.7691 22.5823 81.1681 22.6773 81.6431 22.6773C82.1751 22.6773 82.5931 22.5633 82.9541 22.3542C83.3151 22.1451 83.6001 21.8599 83.8471 21.5368C84.0751 21.1946 84.2461 20.8145 84.3411 20.3773C84.4361 19.921 84.4931 19.4838 84.4931 19.0276ZM88.5021 9.92236H90.7821V12.0704H88.5021V9.92236ZM88.5021 13.8572H90.7821V24.179H88.5021V13.8572ZM92.8151 9.92236H95.095V24.179H92.8151V9.92236ZM102.049 24.4642C101.232 24.4642 100.491 24.3311 99.845 24.046C99.199 23.7608 98.6671 23.3997 98.2111 22.9244C97.7741 22.4492 97.432 21.8599 97.204 21.1946C96.976 20.5293 96.843 19.788 96.843 19.0086C96.843 18.2292 96.957 17.5069 97.204 16.8416C97.432 16.1763 97.7741 15.606 98.2111 15.1118C98.648 14.6366 99.199 14.2564 99.845 13.9903C100.491 13.7241 101.232 13.5721 102.049 13.5721C102.866 13.5721 103.607 13.7051 104.253 13.9903C104.899 14.2564 105.431 14.6366 105.887 15.1118C106.324 15.587 106.666 16.1763 106.894 16.8416C107.122 17.5069 107.255 18.2292 107.255 19.0086C107.255 19.807 107.141 20.5293 106.894 21.1946C106.647 21.8599 106.324 22.4302 105.887 22.9244C105.45 23.3997 104.899 23.7798 104.253 24.046C103.607 24.3121 102.885 24.4642 102.049 24.4642ZM102.049 22.6583C102.543 22.6583 102.999 22.5443 103.36 22.3352C103.74 22.1261 104.025 21.8409 104.272 21.4988C104.519 21.1566 104.69 20.7574 104.804 20.3392C104.918 19.902 104.975 19.4648 104.975 19.0086C104.975 18.5714 104.918 18.1342 104.804 17.697C104.69 17.2598 104.519 16.8796 104.272 16.5375C104.025 16.1953 103.721 15.9292 103.36 15.7201C102.98 15.511 102.543 15.3969 102.049 15.3969C101.555 15.3969 101.099 15.511 100.738 15.7201C100.358 15.9292 100.073 16.2143 99.826 16.5375C99.579 16.8796 99.408 17.2598 99.294 17.697C99.18 18.1342 99.123 18.5714 99.123 19.0086C99.123 19.4648 99.18 19.902 99.294 20.3392C99.408 20.7764 99.579 21.1566 99.826 21.4988C100.073 21.8409 100.377 22.1261 100.738 22.3352C101.118 22.5633 101.555 22.6583 102.049 22.6583ZM107.939 13.8572H109.668V10.7397H111.948V13.8382H114V15.53H111.948V21.0426C111.948 21.2897 111.967 21.4798 111.986 21.6699C112.005 21.8409 112.062 21.993 112.119 22.1071C112.195 22.2211 112.309 22.3162 112.442 22.3732C112.594 22.4302 112.784 22.4682 113.05 22.4682C113.202 22.4682 113.373 22.4682 113.525 22.4492C113.677 22.4302 113.848 22.4112 114 22.3732V24.141C113.753 24.179 113.506 24.198 113.259 24.2171C113.012 24.2551 112.784 24.2551 112.518 24.2551C111.91 24.2551 111.435 24.198 111.074 24.084C110.713 23.9699 110.428 23.7989 110.219 23.5898C110.01 23.3617 109.877 23.0955 109.801 22.7724C109.725 22.4492 109.687 22.05 109.668 21.6318V15.549H107.939V13.8192V13.8572Z" fill="white"/>
<path d="M27.303 9.92265H16.872L13.661 0L10.431 9.92265L0 9.90364L8.436 16.0435L5.206 25.9662L13.642 19.8263L22.078 25.9662L18.867 16.0435L27.303 9.92265Z" fill="#00B67A"/>
<path d="M19.589 18.2865L18.867 16.0435L13.661 19.8262L19.589 18.2865Z" fill="#005128"/>
</svg>
