<svg width="46" height="32" viewBox="0 0 46 32" fill="none" xmlns="http://www.w3.org/2000/svg">
<path fill-rule="evenodd" clip-rule="evenodd" d="M6.88561 11.6501C6.8872 10.9176 7.54708 10.3249 8.36268 10.3236H23.7309V21.7833L8.36268 21.7833C7.84182 21.7824 7.38448 21.5403 7.12153 21.1747C7.0242 21.0394 6.9535 20.8872 6.91608 20.724C6.89629 20.6377 6.88581 20.5483 6.88561 20.4568V20.4568V11.6501V11.6501ZM37.7752 9.33325H8.36268C6.93772 9.33347 5.78345 10.37 5.78296 11.6501V20.4569C5.78345 21.7365 6.93772 22.7732 8.36268 22.7736H37.7752C39.2001 22.7732 40.3544 21.7365 40.3549 20.4569V11.6501C40.3544 10.37 39.2001 9.33347 37.7752 9.33325ZM24.9558 19.0166H26.2461V17.1946H26.2605C26.5043 17.5938 26.9919 17.7417 27.4434 17.7417C28.5546 17.7417 29.1496 16.9175 29.1496 15.9258C29.1496 15.1147 28.5837 14.2325 27.5512 14.2325C26.9633 14.2325 26.4183 14.445 26.1603 14.915H26.1459V14.3097H24.9558V19.0166ZM27.8163 15.9517C27.8163 16.4863 27.5223 16.8531 27.0351 16.8531C26.6048 16.8531 26.246 16.4863 26.246 15.9967C26.246 15.4946 26.5617 15.1211 27.0351 15.1211C27.5367 15.1211 27.8163 15.5072 27.8163 15.9517ZM34.8969 19.0941C34.6243 19.0941 34.3593 19.0684 34.0938 19.0167L34.1802 18.1345C34.3519 18.1865 34.5097 18.2055 34.6895 18.2055C35.0045 18.2055 35.2483 18.038 35.341 17.7418L33.829 14.3098H35.2193L36.0223 16.499H36.0366L36.8039 14.3098H38.0943L36.7248 17.4331C36.7041 17.4809 36.6836 17.5286 36.6633 17.5761C36.3248 18.3662 36.0129 19.0941 34.8969 19.0941ZM33.541 16.9816C33.541 17.2458 33.5557 17.5096 33.6129 17.7735H32.4298C32.427 17.6993 32.4215 17.6261 32.4162 17.5534V17.5534L32.4162 17.5534C32.4085 17.45 32.4009 17.3479 32.4009 17.2458H32.3869C32.0931 17.6642 31.7347 17.8512 31.2042 17.8512C30.4657 17.8512 29.8062 17.5229 29.8062 16.795C29.8062 15.7713 31.0464 15.6485 31.7347 15.6485C31.9427 15.6485 32.1718 15.6681 32.3367 15.6941C32.3296 15.2367 31.9495 15.1144 31.4833 15.1144C31.0677 15.1144 30.6521 15.1854 30.2933 15.3655L30.272 14.5801C30.7308 14.4123 31.211 14.3418 31.7633 14.3418C32.7168 14.3418 33.541 14.7086 33.541 15.7325V16.9816ZM31.7917 16.267C31.3543 16.267 31.0103 16.3893 31.0103 16.7113C31.0103 16.9427 31.2398 17.0785 31.5407 17.0785C32.0286 17.0785 32.3367 16.6788 32.3367 16.2862C32.2886 16.2843 32.2387 16.2819 32.1873 16.2794L32.1872 16.2794L32.1871 16.2794C32.0624 16.2734 31.9289 16.267 31.7917 16.267Z" fill="white"/>
<path fill-rule="evenodd" clip-rule="evenodd" d="M13.7412 17.6639H15.0316V14.3094H13.7412V17.6639ZM13.7412 13.7621H15.0316V12.9121H13.7412V13.7621ZM18.1875 14.2323C18.3379 14.2323 18.4955 14.2516 18.6247 14.2706L18.56 15.2365C18.4168 15.198 18.2733 15.198 18.1229 15.198C17.5208 15.198 17.1837 15.5908 17.1837 16.2478V17.6641H15.8934V14.3095H17.0691V14.9275H17.0833C17.3056 14.5027 17.6283 14.2323 18.1875 14.2323ZM23.0185 15.9903C23.0185 17.0978 22.0793 17.7415 20.8465 17.7415C19.6135 17.7415 18.6743 17.0978 18.6743 15.9903C18.6743 14.876 19.6135 14.2323 20.8465 14.2323C22.0793 14.2323 23.0185 14.876 23.0185 15.9903ZM20.0077 15.9901C20.0077 16.486 20.2515 16.93 20.8465 16.93C21.4415 16.93 21.6853 16.486 21.6853 15.9901C21.6853 15.4878 21.4415 15.0435 20.8465 15.0435C20.2515 15.0435 20.0077 15.4878 20.0077 15.9901ZM11.682 14.3095H12.8508V17.2717C12.8508 18.6494 12.1053 19.0939 10.5998 19.0939C9.98335 19.0939 9.47431 18.9777 9.17311 18.8815L9.23779 17.9671C9.63199 18.1409 9.96174 18.2438 10.4995 18.2438C11.2451 18.2438 11.6464 17.9285 11.6464 17.2717V17.091H11.6319C11.3239 17.4843 10.8938 17.6641 10.3777 17.6641C9.35239 17.6641 8.71436 16.9692 8.71436 15.9772C8.71436 14.979 9.23779 14.2323 10.399 14.2323C10.9509 14.2323 11.3955 14.5027 11.668 14.9147H11.682V14.3095ZM10.7791 15.1209C10.2987 15.1209 10.0478 15.5008 10.0478 15.9578C10.0478 16.4792 10.392 16.7758 10.7791 16.7758C11.2377 16.7758 11.6035 16.4281 11.6035 15.9127C11.6035 15.5391 11.3596 15.1209 10.7791 15.1209Z" fill="white"/>
</svg>
