<svg width="46" height="32" viewBox="0 0 46 32" fill="none" xmlns="http://www.w3.org/2000/svg">
<path fill-rule="evenodd" clip-rule="evenodd" d="M12.5032 6.60815H23.4494C30.8877 6.60815 33.7461 10.7321 33.7461 15.9447C33.7461 22.1801 29.7508 25.3143 23.4494 25.3143H12.5032V6.60815ZM13.5425 7.73016V24.2589H23.4493C29.4259 24.2589 32.6741 21.4216 32.6741 15.978C32.6741 10.3695 29.1661 7.73016 23.4493 7.73016H13.5425ZM16.4659 16.2745C17.5602 16.2745 18.4473 15.3735 18.4473 14.2621C18.4473 13.1506 17.5602 12.2496 16.4659 12.2496C15.3716 12.2496 14.4845 13.1506 14.4845 14.2621C14.4845 15.3735 15.3716 16.2745 16.4659 16.2745ZM14.8744 17.1324H18.0576V22.8729H14.8744V17.1324Z" fill="white"/>
<path fill-rule="evenodd" clip-rule="evenodd" d="M29.0688 12.4145H29.9783V15.1858H31.31C30.9527 10.1381 27.0225 9.01636 23.4495 9.01636H19.6492V12.4145H20.2014C21.2408 12.4145 21.8579 13.1073 21.8579 14.262C21.8579 15.4167 21.2408 16.1095 20.2338 16.1095H19.6492V22.8728H23.4495C29.2637 22.8728 31.2451 20.1345 31.3425 16.1095H29.0688V12.4145ZM24.6838 15.1859V16.1096H22.4101V12.4146H24.6188V13.3384H23.3196V13.7673H24.5539V14.691H23.352V15.1859H24.6838ZM25.0735 16.1096L26.1779 12.4146H27.4771L28.5815 16.1096H27.6395L27.4446 15.4168H26.2428L26.0479 16.1096H25.0735ZM26.5129 14.4596H26.5027V14.4926L26.5129 14.4596ZM26.5129 14.4596H27.1524L26.86 13.4369H26.8275L26.5129 14.4596ZM19.6492 15.1856V13.338H20.2014C20.5586 13.338 20.9484 13.437 20.9484 14.2618C20.9484 15.0866 20.5911 15.1856 20.2014 15.1856H19.6492Z" fill="white"/>
</svg>
