<svg width="52" height="48" viewBox="0 0 52 48" fill="none" xmlns="http://www.w3.org/2000/svg">
<path d="M45.3881 22.9528V14.1433C45.4034 14.0097 45.3956 13.8745 45.3649 13.7436L42.339 0.89988C42.2791 0.644342 42.1356 0.416586 41.9315 0.253332C41.7275 0.0900776 41.4749 0.000838104 41.2144 0H4.18521C3.92473 0.000838104 3.67212 0.0900776 3.46811 0.253332C3.26409 0.416586 3.12056 0.644342 3.06065 0.89988L0.054489 13.6606C0.0187271 13.774 0.000352243 13.8923 0 14.0113V40.6816C0 40.9915 0.122144 41.2888 0.339562 41.508C0.55698 41.7271 0.851862 41.8503 1.15934 41.8503H27.467C28.5597 43.5562 30.0216 44.9904 31.743 46.0451C33.4644 47.0997 35.4004 47.7475 37.4058 47.9397C39.4111 48.1319 41.4336 47.8635 43.3213 47.1547C45.209 46.4459 46.9128 45.3151 48.3048 43.8473C49.6968 42.3795 50.7407 40.6128 51.3582 38.6799C51.9757 36.747 52.1506 34.6983 51.8699 32.6874C51.5892 30.6766 50.8602 28.7561 49.7375 27.0701C48.6149 25.384 47.1278 23.9764 45.3881 22.9528V22.9528ZM42.768 12.8437H28.311V2.33735H40.2986L42.768 12.8437ZM19.3957 15.1811H25.9923V21.3166H19.3957V15.1811ZM25.9923 2.33735V12.8321H19.3957V2.33735H25.9923ZM5.10108 2.33735H17.077V12.8437H2.6317L5.10108 2.33735ZM26.259 39.5129H2.31867V15.1811H17.077V22.4853C17.077 22.7953 17.1992 23.0925 17.4166 23.3117C17.634 23.5309 17.9289 23.654 18.2364 23.654H27.1517C27.4592 23.654 27.754 23.5309 27.9715 23.3117C28.1889 23.0925 28.311 22.7953 28.311 22.4853V15.1811H43.081V21.8659C43.0288 21.8472 42.9755 21.832 42.9233 21.8133C42.7432 21.7526 42.562 21.6953 42.3796 21.6415L42.1697 21.5819L41.895 21.5095C41.779 21.4803 41.6631 21.4534 41.5472 21.4265L41.4011 21.3949C41.2492 21.3622 41.0962 21.333 40.9374 21.3061L40.8469 21.2909C40.5084 21.2333 40.166 21.1896 39.8198 21.16L39.7548 21.1542C39.5879 21.1402 39.4198 21.1297 39.2517 21.1215H39.1647C38.9943 21.1215 38.8227 21.111 38.6511 21.111C37.8609 21.1108 37.0722 21.1812 36.2942 21.3213C35.3233 21.4966 34.3748 21.7808 33.4666 22.1686C33.268 22.2543 33.0713 22.3443 32.8765 22.4386C32.6829 22.5332 32.4904 22.6326 32.2968 22.7354C30.6008 23.6669 29.1239 24.9561 27.9667 26.5149C27.8384 26.6879 27.7143 26.8636 27.5945 27.042C27.2339 27.5806 26.9119 28.1446 26.6311 28.7296C26.4909 29.0241 26.3599 29.3232 26.2404 29.6283C26.1604 29.8316 26.0862 30.0373 26.0155 30.2453C25.9448 30.4533 25.881 30.6637 25.8208 30.8764C25.7605 31.0891 25.7048 31.303 25.6561 31.5192C25.4263 32.5131 25.3096 33.5302 25.3083 34.5507C25.3083 34.6606 25.3083 34.7704 25.3083 34.8815C25.3083 34.9411 25.3083 34.9983 25.3083 35.0603C25.3083 35.1222 25.3083 35.1561 25.3141 35.204C25.3141 35.2847 25.3234 35.3653 25.328 35.4459C25.328 35.4705 25.328 35.4962 25.328 35.5207C25.335 35.6142 25.3431 35.7077 25.3512 35.8012V35.8339C25.3605 35.9356 25.3709 36.0373 25.3837 36.1378V36.1471C25.4092 36.3575 25.439 36.5667 25.473 36.7747C25.4903 36.8764 25.5077 36.9781 25.5274 37.0786V37.0984C25.5445 37.1912 25.563 37.2835 25.5831 37.3754L25.597 37.4362C25.6132 37.5133 25.6306 37.5893 25.648 37.6699C25.6596 37.7155 25.67 37.7611 25.6816 37.8055C25.6932 37.8499 25.706 37.906 25.7187 37.9551C25.7408 38.0416 25.7651 38.128 25.7883 38.2145C25.7908 38.2218 25.7927 38.2292 25.7941 38.2367C25.9506 38.6621 26.0944 39.0922 26.259 39.5129ZM38.6523 45.6485C36.474 45.6485 34.3446 44.9973 32.5334 43.7774C30.7222 42.5574 29.3106 40.8235 28.477 38.7948C27.6434 36.7661 27.4253 34.5337 27.8502 32.3801C28.2752 30.2264 29.3241 28.2482 30.8644 26.6955C32.4047 25.1428 34.3672 24.0854 36.5036 23.657C38.6401 23.2286 40.8546 23.4484 42.8671 24.2888C44.8796 25.1291 46.5997 26.5521 47.8099 28.3779C49.0201 30.2037 49.666 32.3502 49.666 34.546C49.6632 37.4897 48.502 40.3121 46.4371 42.3936C44.3722 44.4751 41.5725 45.6457 38.6523 45.6485V45.6485ZM43.6977 29.966C44.8237 31.2214 45.4467 32.8537 45.446 34.546C45.446 34.856 45.3239 35.1533 45.1065 35.3724C44.889 35.5916 44.5942 35.7147 44.2867 35.7147C43.9792 35.7147 43.6843 35.5916 43.4669 35.3724C43.2495 35.1533 43.1273 34.856 43.1273 34.546C43.1281 33.7337 42.9101 32.9364 42.4967 32.2391L39.6725 37.5846C39.6074 37.7308 39.5132 37.8619 39.3957 37.9698C39.2783 38.0777 39.14 38.1601 38.9896 38.2119C38.8392 38.2637 38.6798 38.2838 38.5214 38.2709C38.363 38.258 38.2089 38.2123 38.0687 38.1369C37.9285 38.0614 37.8052 37.9576 37.7064 37.8321C37.6077 37.7066 37.5356 37.5619 37.4947 37.4071C37.4537 37.2522 37.4448 37.0906 37.4684 36.9322C37.4921 36.7737 37.5478 36.6219 37.6321 36.4861L40.7623 30.5667C40.0804 30.1988 39.3156 30.0154 38.5424 30.0343C37.7693 30.0533 37.0142 30.274 36.3508 30.6748C35.6875 31.0757 35.1386 31.643 34.7576 32.3215C34.3767 33 34.1767 33.7664 34.1773 34.546C34.1773 34.856 34.0551 35.1533 33.8377 35.3724C33.6203 35.5916 33.3254 35.7147 33.0179 35.7147C32.7105 35.7147 32.4156 35.5916 32.1982 35.3724C31.9807 35.1533 31.8586 34.856 31.8586 34.546C31.858 33.3633 32.1614 32.2006 32.7393 31.1712C33.3171 30.1419 34.1497 29.281 35.1559 28.6726C36.162 28.0642 37.3074 27.729 38.4803 27.6996C39.6533 27.6703 40.8137 27.9478 41.8486 28.5052L42.3738 27.5106C42.4389 27.3645 42.5331 27.2333 42.6506 27.1254C42.768 27.0175 42.9063 26.9351 43.0567 26.8833C43.2071 26.8315 43.3665 26.8114 43.5249 26.8244C43.6833 26.8373 43.8374 26.8829 43.9776 26.9584C44.1178 27.0339 44.2411 27.1376 44.3399 27.2631C44.4386 27.3887 44.5107 27.5334 44.5516 27.6882C44.5926 27.843 44.6015 28.0046 44.5779 28.1631C44.5542 28.3215 44.4985 28.4734 44.4142 28.6092L43.6977 29.966Z" fill="#2B80FF"/>
</svg>
