<svg width="46" height="32" viewBox="0 0 46 32" fill="none" xmlns="http://www.w3.org/2000/svg">
<path d="M29.7403 15.9391C30.459 15.9545 31.1819 15.9078 31.8978 15.9633C32.6228 16.0966 32.7975 17.1782 32.1534 17.5325C31.7139 17.7659 31.1919 17.6194 30.7154 17.6606H29.7403V15.9391V15.9391ZM32.3134 13.9905C32.4731 14.546 31.9297 15.0448 31.3868 14.9683H29.7403C29.7518 14.4444 29.7177 13.8758 29.757 13.3796C30.4166 13.3979 31.0823 13.3422 31.7381 13.4087C32.0199 13.4784 32.2557 13.7067 32.3134 13.9905V13.9905ZM36.276 5.75272C36.3067 6.81358 36.2805 7.9305 36.2893 9.01287C36.2872 13.4134 36.2936 17.8138 36.2857 22.2146C36.2568 23.8638 34.7738 25.2968 33.1119 25.3297C31.4484 25.3364 29.7847 25.3308 28.1209 25.3326V18.6799C29.9336 18.6707 31.7473 18.6986 33.5592 18.666C34.3998 18.614 35.3205 18.0674 35.3596 17.1558C35.4586 16.2402 34.5827 15.6069 33.7511 15.5069C33.4315 15.4987 33.4408 15.4151 33.7511 15.3786C34.5443 15.2097 35.1671 14.4007 34.9337 13.5905C34.7349 12.7383 33.7792 12.4085 32.9843 12.4101C31.3634 12.3993 29.7422 12.4086 28.1213 12.4055C28.1318 11.1635 28.0995 9.92018 28.1387 8.67912C28.2672 7.05968 29.7876 5.72417 31.4261 5.75315C33.0429 5.75291 34.6595 5.75291 36.276 5.75285V5.75272Z" fill="white"/>
<path d="M9.8041 8.84666C9.84549 7.20006 11.3349 5.77878 12.9946 5.75472C14.652 5.74969 16.3096 5.75399 17.9669 5.75254C17.9624 11.2617 17.9759 16.7714 17.9601 22.2803C17.8962 23.9069 16.4231 25.3011 14.7814 25.3299C13.1209 25.3358 11.4603 25.3307 9.79973 25.3323V18.4554C11.4127 18.8309 13.1041 18.9907 14.7495 18.7417C15.7331 18.5857 16.8093 18.1097 17.1423 17.1041C17.3873 16.2438 17.2494 15.3385 17.2858 14.4556V12.4053H14.4382C14.4254 13.7613 14.4644 15.1198 14.4176 16.4742C14.3408 17.3067 13.5042 17.8356 12.7075 17.8074C11.7195 17.8177 9.76147 17.1017 9.76147 17.1017C9.75655 14.561 9.79014 11.3792 9.8041 8.8469V8.84666Z" fill="white"/>
<path d="M19.0288 13.2324C18.8789 13.2637 18.9987 12.7292 18.9603 12.5264C18.9705 11.2444 18.939 9.96094 18.9777 8.6798C19.1058 7.05352 20.6379 5.71468 22.283 5.75275H27.1279C27.1233 11.2619 27.1368 16.7717 27.121 22.2805C27.0571 23.9071 25.5838 25.3012 23.9421 25.3301C22.2816 25.3362 20.6209 25.331 18.9603 25.3326V17.798C20.0944 18.715 21.6359 18.8578 23.0488 18.8603C24.114 18.8599 25.173 18.6981 26.2074 18.4559V17.0756C25.0417 17.6482 23.6713 18.0119 22.379 17.6829C21.4775 17.4618 20.8232 16.6032 20.8377 15.6864C20.7333 14.7329 21.3004 13.7263 22.2511 13.4429C23.4315 13.0787 24.718 13.3572 25.8245 13.8307C26.0615 13.953 26.3021 14.1048 26.2074 13.7143V12.6293C24.3568 12.1954 22.3875 12.0357 20.5284 12.5078C19.9902 12.6574 19.4659 12.8842 19.0288 13.2325V13.2324Z" fill="white"/>
</svg>
