<svg width="46" height="32" viewBox="0 0 46 32" fill="none" xmlns="http://www.w3.org/2000/svg">
<path fill-rule="evenodd" clip-rule="evenodd" d="M9.13146 19.8669H7.57642V12.8H9.13146V19.8669ZM13.0138 12.8H11.4924C11.4924 14.1005 10.9192 15.2942 9.91962 16.0751L9.3169 16.5459L11.6523 19.8672H13.5724L11.4235 16.8111C12.4421 15.7532 13.0138 14.33 13.0138 12.8ZM15.4941 19.8653H14.0255V12.8017H15.4941V19.8653ZM19.9311 14.9787V15.2912C19.5349 15.0093 19.0566 14.8436 18.5407 14.8436C17.1755 14.8436 16.0687 15.9979 16.0687 17.4219C16.0687 18.8458 17.1755 20.0001 18.5407 20.0001C19.0566 20.0001 19.5349 19.8344 19.9311 19.5526V19.8648H21.3338V14.9787H19.9311ZM19.9269 17.4219C19.9269 18.1162 19.3578 18.6791 18.6559 18.6791C17.954 18.6791 17.3849 18.1162 17.3849 17.4219C17.3849 16.7276 17.954 16.1649 18.6559 16.1649C19.3578 16.1649 19.9269 16.7276 19.9269 17.4219ZM34.7288 15.2912V14.9787H36.1315V19.8648H34.7288V19.5526C34.3326 19.8344 33.8543 20.0001 33.3384 20.0001C31.9731 20.0001 30.8664 18.8458 30.8664 17.4219C30.8664 15.9979 31.9731 14.8436 33.3384 14.8436C33.8543 14.8436 34.3326 15.0093 34.7288 15.2912ZM33.4535 18.6791C34.1555 18.6791 34.7245 18.1162 34.7245 17.4219C34.7245 16.7276 34.1555 16.1649 33.4535 16.1649C32.7516 16.1649 32.1826 16.7276 32.1826 17.4219C32.1826 18.1162 32.7516 18.6791 33.4535 18.6791ZM36.7402 19.0501C36.7402 18.5431 37.1343 18.1321 37.6204 18.1321C38.1065 18.1321 38.5007 18.5431 38.5007 19.0501C38.5007 19.5571 38.1065 19.9681 37.6204 19.9681C37.1343 19.9681 36.7402 19.5571 36.7402 19.0501ZM28.3739 14.8472C27.8136 14.8472 27.2833 15.0286 26.9288 15.5292V14.9789H25.5322V19.8648H26.9459V17.2971C26.9459 16.554 27.4237 16.1902 27.9989 16.1902C28.6153 16.1902 28.9697 16.5743 28.9697 17.287V19.8648H30.3707V16.7576C30.3707 15.6205 29.5039 14.8472 28.3739 14.8472ZM23.5036 14.9786V15.615C23.7848 15.2333 24.3087 14.9789 24.8783 14.9789V16.4007L24.8705 16.4004C24.8675 16.4002 24.8646 16.4001 24.8616 16.4001C24.3066 16.4001 23.5068 16.8138 23.5068 17.5834V19.8647H22.0675V14.9786H23.5036Z" fill="white"/>
</svg>
