<svg width="48" height="48" viewBox="0 0 48 48" fill="none" xmlns="http://www.w3.org/2000/svg">
<path d="M23.9203 0C23.3589 0.0720883 22.8269 0.292245 22.3787 0.637874C21.8098 0.911493 21.2746 1.25043 20.7841 1.64784L19.3488 2.60465L18.6047 3.0299C18.6047 3.0299 18.2326 3.0299 17.7542 3.0299H16H13.8738C13.1608 2.86668 12.414 2.94136 11.7475 3.24252C11.1871 3.58115 10.7423 4.0815 10.4718 4.67774C10.2251 5.2495 10.0121 5.83522 9.83389 6.43189L9.03655 7.97342C8.91506 8.23253 8.77285 8.4814 8.6113 8.71761C8.37509 8.87916 8.12621 9.02137 7.86711 9.14286L6.43189 9.83389L4.78405 10.6844C4.17684 10.8794 3.64063 11.2492 3.24252 11.7475C2.91307 12.3287 2.76498 12.9951 2.81728 13.6611C2.81728 14.2458 2.81728 14.8837 2.81728 15.5216C2.81728 16.1595 2.81728 16.7973 2.81728 17.2757C2.81728 17.7542 2.81728 18.1794 2.81728 18.1262L2.39203 18.8704L1.38206 20.3056L0.584717 22.3787C0.232171 22.9183 0.0302943 23.5423 0 24.186C0.030984 24.8463 0.232429 25.4873 0.584717 26.0465L1.59468 27.6412L2.60465 29.0764C2.87043 29.5017 3.0299 29.8738 3.0299 29.8206C3.0299 29.7674 3.0299 30.1395 3.0299 30.6711C3.0299 31.2027 3.0299 31.7874 3.0299 32.3721C3.0299 32.9568 3.0299 33.6478 3.0299 34.2857C2.97494 34.935 3.12357 35.5853 3.45515 36.1462C3.79315 36.7201 4.29219 37.1822 4.89037 37.4751L6.43189 38.3256L7.97342 39.0698C8.23253 39.1913 8.4814 39.3335 8.71761 39.495C8.71761 39.495 8.71761 39.814 9.14286 40.2392C9.56811 40.6645 9.62126 41.2492 9.9402 41.7807C10.1916 42.3632 10.4755 42.9311 10.7907 43.4817C11.0223 43.9355 11.3486 44.3343 11.7475 44.6512C12.341 44.9431 13.0015 45.0715 13.6611 45.0233C14.2802 45.0755 14.9025 45.0755 15.5216 45.0233H17.2757H18.1262L18.8704 45.4485L20.3056 46.4053C20.8091 46.7844 21.3424 47.1221 21.9003 47.4153C22.4294 47.7892 23.0598 47.9932 23.7076 48C24.3721 47.994 25.0197 47.7904 25.5681 47.4153L27.1628 46.4053L28.598 45.4485L29.3422 45.0233H30.1927H31.8937C32.5305 45.0763 33.1705 45.0763 33.8073 45.0233C34.4497 45.0697 35.0927 44.9411 35.6678 44.6512C36.2308 44.2998 36.6896 43.8043 36.9967 43.2159C37.4754 42.6778 37.9193 42.1097 38.3256 41.515L39.0698 39.9734C39.0698 39.5482 39.5482 39.2292 39.495 39.2292L40.2392 38.804L41.515 38.3256L43.2159 37.4751C43.8043 37.168 44.2998 36.7092 44.6512 36.1462C44.9411 35.5711 45.0697 34.9281 45.0233 34.2857C45.0763 33.6489 45.0763 33.0089 45.0233 32.3721C45.0233 31.7874 45.0233 31.1495 45.0233 30.6711C44.9871 30.3887 44.9871 30.1029 45.0233 29.8206L45.4485 29.0764C45.7363 28.5779 46.0559 28.0985 46.4053 27.6412C46.7774 27.1096 47.0963 26.5781 47.4153 26.0465C47.7676 25.4873 47.969 24.8463 48 24.186C47.9226 23.5267 47.6651 22.9014 47.2558 22.3787C46.9509 21.8277 46.6137 21.2952 46.2458 20.7841C45.8964 20.3267 45.5768 19.8473 45.289 19.3488L44.8638 18.6047C44.8298 18.3222 44.8298 18.0366 44.8638 17.7542C44.8638 17.2757 44.8638 16.6379 44.8638 16C44.9161 15.3809 44.9161 14.7586 44.8638 14.1395C45.0592 13.3406 44.9845 12.4994 44.6512 11.7475C44.2986 11.1989 43.8021 10.7576 43.2159 10.4718L41.515 9.83389L39.9734 9.03655C39.5482 9.03655 39.2292 8.55814 39.2292 8.6113C39.0677 8.37509 38.9255 8.12621 38.804 7.86711L38.3256 6.43189C38.0743 5.86658 37.7903 5.31637 37.4751 4.78405C37.1822 4.18588 36.7201 3.68684 36.1462 3.34884C35.5853 3.01726 34.935 2.86863 34.2857 2.92359H32.1063H30.4053C29.8738 2.92359 29.5017 2.92359 29.5548 2.92359L28.8106 2.49834L27.3754 1.64784C26.8686 1.27366 26.3357 0.936148 25.7807 0.637874C25.2369 0.246713 24.5897 0.0248138 23.9203 0V0ZM23.9203 2.87043H24.3987L25.7807 3.72093L27.2691 4.7309C27.7294 5.08946 28.252 5.35979 28.8106 5.52824C29.375 5.60614 29.9473 5.60614 30.5116 5.52824H32.3189H34.4452C34.5731 5.6524 34.6807 5.7959 34.7641 5.95349L35.5083 7.3887L36.3056 9.03655C36.549 9.56122 36.8718 10.0453 37.2625 10.4718C37.668 10.9725 38.1528 11.4035 38.6977 11.7475L40.3455 12.5449L41.7807 13.289L42.1528 13.608C42.1687 13.7848 42.1687 13.9627 42.1528 14.1395C42.1528 14.5648 42.1528 15.1495 42.1528 15.7342C42.1528 16.3189 42.1528 16.9568 42.1528 17.5415C42.0483 18.1216 42.0483 18.7156 42.1528 19.2957C42.314 19.8307 42.5657 20.3341 42.897 20.7841L43.907 22.3787C44.2379 22.8008 44.5398 23.2447 44.8106 23.7076C44.9141 23.8457 44.9701 24.0135 44.9701 24.186C44.9701 24.3586 44.9141 24.5264 44.8106 24.6645C44.5415 25.1453 44.2395 25.6071 43.907 26.0465L42.897 27.5349C42.5552 27.9979 42.3028 28.5207 42.1528 29.0764C42.0489 29.6386 42.0489 30.2152 42.1528 30.7774C42.1528 31.3621 42.1528 32 42.1528 32.5847C42.1528 33.1694 42.1528 33.7542 42.1528 34.1794C42.1745 34.3559 42.1745 34.5344 42.1528 34.711C42.0527 34.8424 41.9259 34.9511 41.7807 35.0299L40.3455 35.7741L38.6977 36.5714C38.1612 36.7932 37.6738 37.1186 37.2633 37.5291C36.8528 37.9395 36.5274 38.427 36.3056 38.9635L35.5083 40.6113L34.7641 42.0465C34.6853 42.1917 34.5766 42.3185 34.4452 42.4186H33.9136H32.3189H30.5116C29.9494 42.3147 29.3729 42.3147 28.8106 42.4186C28.255 42.5686 27.7322 42.821 27.2691 43.1628L25.7807 44.1728C25.3413 44.5053 24.8795 44.8073 24.3987 45.0764H23.9203H23.4419L22.3787 43.907L20.8372 42.897C19.9104 42.1979 18.7453 41.8924 17.5947 42.0465H15.7874H14.1927H13.6611L13.3422 41.6744L12.598 40.2392L11.7475 38.6977C11.517 38.1782 11.2126 37.6949 10.8439 37.2625C10.4174 36.8718 9.93332 36.549 9.40864 36.3056L7.7608 35.5083L6.32558 34.7641L5.90033 34.4452C5.90033 34.4452 5.90033 34.4452 5.90033 33.9136C5.90033 33.3821 5.90033 32.9568 5.90033 32.3189V30.5116C5.97824 29.9473 5.97824 29.375 5.90033 28.8106C5.73188 28.252 5.46155 27.7294 5.10299 27.2691C4.78405 26.7907 4.46512 26.2591 4.09302 25.7807L3.24252 24.3987V23.9203V23.4419L3.93355 22.3787L4.94352 20.8372C5.29181 20.3899 5.56144 19.8866 5.74086 19.3488C5.81839 18.7667 5.81839 18.1768 5.74086 17.5947V15.7874C5.74086 15.2027 5.74086 14.6179 5.74086 14.1927C5.74086 13.7674 5.74086 13.7674 5.74086 13.6611L6.16611 13.3422L7.60133 12.598L9.19601 11.7475C9.7087 11.5045 10.1905 11.2012 10.6312 10.8439C11.0786 10.3495 11.4544 9.79483 11.7475 9.19601L12.5449 7.54817L13.289 6.11296C13.3724 5.95537 13.48 5.81187 13.608 5.68771H15.7342H17.5415C18.1058 5.76698 18.6783 5.76698 19.2425 5.68771C19.8011 5.51926 20.3238 5.24893 20.7841 4.89037L22.3787 3.93355L23.7076 3.08306H24.186L23.9203 2.87043ZM23.9203 9.03655C20.9615 9.02603 18.0663 9.89447 15.6018 11.5317C13.1374 13.1689 11.2146 15.5012 10.0775 18.2327C8.94038 20.9642 8.64011 23.9719 9.21475 26.8744C9.7894 29.7768 11.2131 32.4431 13.3052 34.5353C15.3974 36.6275 18.0638 38.0511 20.9662 38.6258C23.8686 39.2004 26.8763 38.9001 29.6078 37.763C32.3393 36.6259 34.6716 34.7032 36.3088 32.2387C37.9461 29.7742 38.8145 26.879 38.804 23.9203C38.79 19.9772 37.2174 16.1996 34.4292 13.4114C31.641 10.6232 27.8634 9.05055 23.9203 9.03655V9.03655ZM23.9203 11.8538C26.3173 11.8644 28.6573 12.5854 30.6445 13.9259C32.6317 15.2664 34.1767 17.166 35.0843 19.3845C35.9919 21.6031 36.2212 24.041 35.7432 26.3899C35.2653 28.7388 34.1015 30.8932 32.3992 32.5807C30.6968 34.2682 28.5323 35.413 26.1793 35.8703C23.8263 36.3276 21.3905 36.0769 19.18 35.1499C16.9695 34.2229 15.0835 32.6613 13.7605 30.6624C12.4376 28.6635 11.737 26.3173 11.7475 23.9203C11.7333 22.3178 12.0385 20.7285 12.6452 19.2452C13.2519 17.762 14.148 16.4144 15.2812 15.2812C16.4144 14.148 17.762 13.2519 19.2452 12.6452C20.7285 12.0385 22.3178 11.7333 23.9203 11.7475V11.8538ZM29.6611 18.6047C29.2815 18.6072 28.9183 18.7601 28.6512 19.0299L21.9535 25.887L19.1894 23.0698C19.0602 22.9302 18.9049 22.8173 18.7321 22.7378C18.5594 22.6582 18.3727 22.6135 18.1826 22.6061C17.9926 22.5986 17.803 22.6287 17.6246 22.6946C17.4461 22.7605 17.2825 22.8609 17.1429 22.99C16.8609 23.2508 16.6941 23.613 16.6791 23.9968C16.6717 24.1868 16.7018 24.3764 16.7677 24.5548C16.8336 24.7333 16.934 24.8969 17.0631 25.0365V25.0365L20.8372 28.8106C21.1034 29.0611 21.4551 29.2005 21.8206 29.2005C22.1861 29.2005 22.5378 29.0611 22.804 28.8106V28.8106L30.6711 20.9967C30.8081 20.8721 30.9176 20.7203 30.9925 20.551C31.0675 20.3816 31.1062 20.1985 31.1062 20.0133C31.1062 19.8281 31.0675 19.645 30.9925 19.4756C30.9176 19.3063 30.8081 19.1545 30.6711 19.0299C30.5449 18.8884 30.3888 18.7769 30.2141 18.7033C30.0394 18.6298 29.8505 18.596 29.6611 18.6047V18.6047Z" fill="#2B80FF"/>
</svg>
