<svg width="46" height="32" viewBox="0 0 46 32" fill="none" xmlns="http://www.w3.org/2000/svg">
<path d="M26.0544 15.6078C26.0544 20.5457 22.0392 24.5488 17.0861 24.5488C12.133 24.5488 8.11768 20.5457 8.11768 15.6078C8.11768 10.6698 12.133 6.66675 17.0861 6.66675C22.0392 6.66675 26.0544 10.6698 26.0544 15.6078Z" fill="#ED0006"/>
<path d="M37.689 15.6078C37.689 20.5457 33.6737 24.5488 28.7206 24.5488C23.7675 24.5488 19.7522 20.5457 19.7522 15.6078C19.7522 10.6698 23.7675 6.66675 28.7206 6.66675C33.6737 6.66675 37.689 10.6698 37.689 15.6078Z" fill="#0099DF"/>
<path fill-rule="evenodd" clip-rule="evenodd" d="M22.9035 22.4129C24.8318 20.773 26.0545 18.3328 26.0545 15.6078C26.0545 12.8829 24.8318 10.4427 22.9035 8.80273C20.9752 10.4427 19.7524 12.8829 19.7524 15.6078C19.7524 18.3328 20.9752 20.773 22.9035 22.4129Z" fill="#6C6BBD"/>
</svg>
