<svg width="20" height="20" viewBox="0 0 20 20" fill="none" xmlns="http://www.w3.org/2000/svg">
<path d="M18.9997 14.3571C19.642 13.0313 19.9834 11.5799 19.9994 10.1069C20.0155 8.63378 19.7058 7.17535 19.0925 5.8359C18.4792 4.49645 17.5775 3.30907 16.4519 2.3587C15.3263 1.40833 14.0045 0.718454 12.5812 0.338418C12.5639 0.333019 12.5464 0.328371 12.5287 0.324192C10.9673 -0.0835742 9.33029 -0.107031 7.75779 0.255828C6.18529 0.618687 4.7241 1.35706 3.49919 2.40779C3.45233 2.44031 3.40926 2.47798 3.37078 2.5201C1.8513 3.86493 0.777112 5.64039 0.291027 7.61045C-0.195059 9.58051 -0.0700202 11.6519 0.64952 13.5491C1.36906 15.4464 2.64902 17.0798 4.31925 18.2321C5.98948 19.3843 7.97086 20.001 10 20C10.0708 20 10.1412 19.9988 10.2117 19.9973C10.2134 19.9973 10.2151 19.9976 10.2168 19.9976C10.2202 19.9976 10.2234 19.9972 10.2268 19.9971C12.0429 19.9543 13.8131 19.4181 15.3478 18.4461C16.8825 17.4741 18.1238 16.1029 18.9388 14.4793L18.9402 14.4773C18.9635 14.439 18.9834 14.3988 18.9997 14.3571ZM18.4615 10C18.4624 11.0081 18.2823 12.0081 17.9297 12.9526L13.4681 10.2085C13.2853 10.0957 13.0807 10.0228 12.8678 9.99437L10.6737 9.69858C10.3916 9.662 10.1049 9.70379 9.84508 9.81937C9.5852 9.93495 9.36217 10.1199 9.20044 10.3538H8.379L8.01316 9.59802C7.91188 9.38702 7.7635 9.20209 7.57945 9.05751C7.3954 8.91292 7.1806 8.81253 6.95162 8.76409L6.32014 8.6284L6.76044 7.58311H8.81291C9.07302 7.58297 9.32886 7.51701 9.5566 7.39136L10.7338 6.74129C10.8374 6.68406 10.9341 6.61509 11.0219 6.53574L13.6095 4.19556C13.8325 3.99537 13.9918 3.73405 14.0676 3.44407C14.1434 3.1541 14.1323 2.84825 14.0358 2.56451C15.3738 3.2915 16.4911 4.36581 17.27 5.67435C18.0488 6.98288 18.4605 8.47721 18.4615 10ZM1.53846 10C1.53696 8.67477 1.84867 7.36794 2.44817 6.18606L3.45041 8.86109C3.54039 9.1029 3.68998 9.31806 3.88532 9.48661C4.08066 9.65517 4.3154 9.77165 4.56778 9.82526L5.09784 9.9392L5.10221 9.94014L6.62832 10.2682L6.99425 11.0241C7.12102 11.2836 7.31792 11.5025 7.56266 11.656C7.80739 11.8094 8.09019 11.8913 8.37905 11.8923H8.48567L7.74574 13.5526C7.62302 13.8275 7.58372 14.1323 7.63271 14.4293C7.68171 14.7263 7.81684 15.0024 8.02134 15.2233L9.82896 17.1785L9.5828 18.4512C7.41443 18.3416 5.37088 17.4037 3.87397 15.8311C2.37706 14.2584 1.54104 12.1711 1.53846 10Z" fill="#2B80FF"/>
</svg>
