<svg width="46" height="32" viewBox="0 0 46 32" fill="none" xmlns="http://www.w3.org/2000/svg">
<path fill-rule="evenodd" clip-rule="evenodd" d="M23.2422 22.4389C21.6402 23.7696 19.5622 24.573 17.2915 24.573C12.225 24.573 8.11768 20.5734 8.11768 15.6396C8.11768 10.7059 12.225 6.7063 17.2915 6.7063C19.5622 6.7063 21.6402 7.50963 23.2422 8.84035C24.8441 7.50963 26.9221 6.7063 29.1928 6.7063C34.2594 6.7063 38.3667 10.7059 38.3667 15.6396C38.3667 20.5734 34.2594 24.573 29.1928 24.573C26.9221 24.573 24.8441 23.7696 23.2422 22.4389Z" fill="#ED0006"/>
<path fill-rule="evenodd" clip-rule="evenodd" d="M23.2422 22.4389C25.2147 20.8004 26.4654 18.3622 26.4654 15.6396C26.4654 12.917 25.2147 10.4789 23.2422 8.84035C24.8441 7.50963 26.9221 6.7063 29.1928 6.7063C34.2594 6.7063 38.3667 10.7059 38.3667 15.6396C38.3667 20.5734 34.2594 24.573 29.1928 24.573C26.9221 24.573 24.8441 23.7696 23.2422 22.4389Z" fill="#F9A000"/>
<path fill-rule="evenodd" clip-rule="evenodd" d="M23.2423 22.4391C25.2147 20.8005 26.4655 18.3624 26.4655 15.6398C26.4655 12.9172 25.2147 10.4791 23.2423 8.84058C21.2698 10.4791 20.019 12.9172 20.019 15.6398C20.019 18.3624 21.2698 20.8005 23.2423 22.4391Z" fill="#FF5E00"/>
</svg>
