<svg width="59" height="48" viewBox="0 0 59 48" fill="none" xmlns="http://www.w3.org/2000/svg">
<path d="M22.7751 29.3576C22.4199 29.3576 22.0792 29.4987 21.828 29.7499C21.5768 30.001 21.4357 30.3417 21.4357 30.6969C21.4357 31.0522 21.5768 31.3929 21.828 31.644C22.0792 31.8952 22.4199 32.0363 22.7751 32.0363H28.1326V33.3757C28.1326 33.731 28.2738 34.0716 28.5249 34.3228C28.7761 34.574 29.1168 34.7151 29.472 34.7151C29.8273 34.7151 30.1679 34.574 30.4191 34.3228C30.6703 34.0716 30.8114 33.731 30.8114 33.3757V32.0363H36.169C36.5242 32.0363 36.8649 31.8952 37.1161 31.644C37.3673 31.3929 37.5084 31.0522 37.5084 30.6969V24C37.5084 23.6448 37.3673 23.3041 37.1161 23.0529C36.8649 22.8017 36.5242 22.6606 36.169 22.6606H24.1145V18.6424H36.169C36.5242 18.6424 36.8649 18.5013 37.1161 18.2501C37.3673 17.999 37.5084 17.6583 37.5084 17.3031C37.5084 16.9478 37.3673 16.6071 37.1161 16.356C36.8649 16.1048 36.5242 15.9637 36.169 15.9637H30.8114V14.6243C30.8114 14.269 30.6703 13.9284 30.4191 13.6772C30.1679 13.426 29.8273 13.2849 29.472 13.2849C29.1168 13.2849 28.7761 13.426 28.5249 13.6772C28.2738 13.9284 28.1326 14.269 28.1326 14.6243V15.9637H22.7751C22.4199 15.9637 22.0792 16.1048 21.828 16.356C21.5768 16.6071 21.4357 16.9478 21.4357 17.3031V24C21.4357 24.3552 21.5768 24.6959 21.828 24.9471C22.0792 25.1983 22.4199 25.3394 22.7751 25.3394H34.8296V29.3576H22.7751Z" fill="#2B80FF"/>
<path d="M58.5502 19.0309C58.4257 18.9053 58.2775 18.8057 58.1143 18.7377C57.9511 18.6697 57.776 18.6347 57.5992 18.6347C57.4224 18.6347 57.2473 18.6697 57.0841 18.7377C56.9209 18.8057 56.7728 18.9053 56.6482 19.0309L53.4873 22.1918C53.0628 16.8711 50.8846 11.8416 47.2943 7.892C43.7039 3.94237 38.9043 1.2959 33.648 0.367513C28.3917 -0.560879 22.9759 0.281305 18.2498 2.76202C13.5236 5.24274 9.75432 9.22172 7.53285 14.0751C7.3879 14.3985 7.377 14.7661 7.50251 15.0975C7.62803 15.4288 7.87975 15.6969 8.20254 15.8431C8.52589 15.9881 8.89349 15.999 9.22486 15.8735C9.55623 15.7479 9.82436 15.4962 9.97053 15.1734C11.9287 10.8844 15.2468 7.36086 19.4105 5.14874C23.5743 2.93662 28.3514 2.1594 33.0017 2.9375C37.6519 3.7156 41.9158 6.00557 45.1326 9.45264C48.3495 12.8997 50.3398 17.3114 50.7951 22.0043L47.8351 19.0309C47.7102 18.906 47.5619 18.8069 47.3988 18.7393C47.2356 18.6717 47.0607 18.637 46.8841 18.637C46.7075 18.637 46.5326 18.6717 46.3694 18.7393C46.2063 18.8069 46.058 18.906 45.9331 19.0309C45.8083 19.1558 45.7092 19.304 45.6416 19.4672C45.574 19.6303 45.5392 19.8052 45.5392 19.9818C45.5392 20.1584 45.574 20.3333 45.6416 20.4965C45.7092 20.6597 45.8083 20.8079 45.9331 20.9328L51.2907 26.2904C51.4152 26.4159 51.5633 26.5155 51.7266 26.5835C51.8898 26.6515 52.0648 26.6865 52.2417 26.6865C52.4185 26.6865 52.5935 26.6515 52.7567 26.5835C52.92 26.5155 53.0681 26.4159 53.1926 26.2904L58.5502 20.9328C58.6757 20.8083 58.7754 20.6601 58.8434 20.4969C58.9114 20.3337 58.9464 20.1586 58.9464 19.9818C58.9464 19.805 58.9114 19.63 58.8434 19.4667C58.7754 19.3035 58.6757 19.1554 58.5502 19.0309Z" fill="#2B80FF"/>
<path d="M50.7415 32.1569C50.4182 32.0119 50.0506 32.001 49.7192 32.1265C49.3878 32.2521 49.1197 32.5038 48.9735 32.8266C47.0153 37.1156 43.6973 40.6391 39.5335 42.8513C35.3698 45.0634 30.5927 45.8406 25.9424 45.0625C21.2922 44.2844 17.0283 41.9944 13.8114 38.5474C10.5946 35.1003 8.6043 30.6886 8.14896 25.9957L11.109 28.9691C11.2335 29.0947 11.3817 29.1943 11.5449 29.2623C11.7081 29.3303 11.8832 29.3653 12.06 29.3653C12.2368 29.3653 12.4119 29.3303 12.5751 29.2623C12.7383 29.1943 12.8864 29.0947 13.0109 28.9691C13.1365 28.8446 13.2361 28.6965 13.3041 28.5333C13.3721 28.37 13.4071 28.195 13.4071 28.0182C13.4071 27.8414 13.3721 27.6663 13.3041 27.5031C13.2361 27.3399 13.1365 27.1917 13.0109 27.0672L7.65339 21.7096C7.52888 21.5841 7.38074 21.4845 7.21752 21.4165C7.05431 21.3485 6.87924 21.3135 6.70243 21.3135C6.52561 21.3135 6.35054 21.3485 6.18733 21.4165C6.02411 21.4845 5.87597 21.5841 5.75146 21.7096L0.393903 27.0672C0.141691 27.3194 0 27.6615 0 28.0182C0 28.3748 0.141691 28.7169 0.393903 28.9691C0.646115 29.2213 0.988188 29.363 1.34487 29.363C1.70155 29.363 2.04362 29.2213 2.29584 28.9691L5.45679 25.8082C5.88126 31.1289 8.05944 36.1584 11.6498 40.108C15.2402 44.0576 20.0398 46.7041 25.2961 47.6325C30.5524 48.5609 35.9682 47.7187 40.6943 45.238C45.4205 42.7573 49.1898 38.7783 51.4112 33.9249C51.5562 33.6015 51.5671 33.2339 51.4416 32.9025C51.316 32.5712 51.0643 32.3031 50.7415 32.1569Z" fill="#2B80FF"/>
</svg>
