<svg width="48" height="48" viewBox="0 0 48 48" fill="none" xmlns="http://www.w3.org/2000/svg">
<path d="M9.80536 42.1475H16.5061L21.2636 46.8952C22.0033 47.6043 22.9874 48 24.0108 48C25.0343 48 26.0183 47.6043 26.7581 46.8952L31.5156 42.1251H38.2163C39.253 42.1251 40.2472 41.7122 40.9802 40.9772C41.7132 40.2422 42.1251 39.2454 42.1251 38.206V31.4875L46.8602 26.7174C47.5702 26.0063 47.9783 25.0473 47.9992 24.0413C48.02 23.0353 47.6519 22.0603 46.9719 21.3202L46.8379 21.2082L42.1251 16.4381V9.71967C42.1251 8.68026 41.7132 7.68342 40.9802 6.94845C40.2472 6.21347 39.253 5.80057 38.2163 5.80057H31.5156L26.7805 1.14243C26.0479 0.41079 25.056 0 24.022 0C22.988 0 21.9961 0.41079 21.2636 1.14243L16.5061 5.80057H9.80536C8.76663 5.80055 7.77011 6.21274 7.03353 6.94708C6.29695 7.68141 5.88018 8.67821 5.87428 9.71967V16.4381L1.2508 21.1859C0.869923 21.5431 0.563317 21.9724 0.348648 22.449C0.133978 22.9256 0.0154872 23.4401 2.02936e-06 23.9628C-0.000520672 24.4712 0.0999357 24.9747 0.295511 25.4438C0.491087 25.9129 0.777866 26.3382 1.13912 26.695L5.89662 31.4651V38.1836C5.89367 38.7012 5.99244 39.2143 6.18729 39.6936C6.38213 40.173 6.66923 40.6091 7.03219 40.9772C7.39515 41.3453 7.82687 41.6381 8.30269 41.8389C8.77851 42.0397 9.28912 42.1445 9.80536 42.1475ZM3.12699 23.9628L9.24696 17.8266V9.1598H17.8909L24.0108 3.0236L30.1308 9.1598H38.7747V17.8266L44.8947 23.9628L38.7747 30.099V38.7658H30.1308L24.0108 44.902L17.8909 38.7658H9.24696V30.099L3.12699 23.9628Z" fill="#2B80FF"/>
<path d="M33.7492 19.1477L31.3593 16.7739L21.7773 26.3813L16.6624 21.2529L14.2725 23.6267L21.7773 31.1514L33.7492 19.1477Z" fill="#2B80FF"/>
</svg>
