<svg width="42" height="48" viewBox="0 0 42 48" fill="none" xmlns="http://www.w3.org/2000/svg">
<path d="M41.4387 21.2596L39.514 7.68396C39.4727 7.39145 39.3269 7.12376 39.1037 6.93025C38.8805 6.73674 38.5949 6.63046 38.2994 6.63101C31.3647 6.63101 26.0852 4.63285 21.6776 0.347598C21.4489 0.124731 21.1422 0 20.823 0C20.5037 0 20.197 0.124731 19.9684 0.347598C15.5607 4.63285 10.2812 6.63101 3.34646 6.63101C3.05105 6.63046 2.7654 6.73674 2.54218 6.93025C2.31897 7.12376 2.17325 7.39145 2.1319 7.68396L0.212102 21.2596C-0.377266 25.3379 0.268288 29.4992 2.06556 33.2072C3.86283 36.9152 6.72944 40 10.2959 42.0639L20.2083 47.8331C20.3956 47.9424 20.6086 48 20.8254 48C21.0422 48 21.2552 47.9424 21.4425 47.8331L31.3549 42.0639C34.9214 40 37.788 36.9152 39.5852 33.2072C41.3825 29.4992 42.0281 25.3379 41.4387 21.2596ZM2.63633 21.6025L4.4141 9.06503C11.0795 8.87893 16.3442 6.90037 20.8254 2.90406C25.3066 6.90526 30.5713 8.87893 37.2367 9.06993L39.0145 21.6074C39.4366 24.5322 39.1389 27.5159 38.1472 30.2997C37.1556 33.0836 35.4999 35.5835 33.3237 37.5828C31.4191 36.2557 29.3143 35.2421 27.0892 34.5807V32.1711C28.0571 30.7736 28.689 29.1712 28.9356 27.4892C29.5388 26.955 30.0222 26.2991 30.3539 25.5648C30.6857 24.8304 30.8582 24.0342 30.8602 23.2284C30.8614 22.8334 30.784 22.4421 30.6327 22.0772C30.4814 21.7124 30.2591 21.3812 29.9787 21.1029C29.7171 20.8421 29.4101 20.6313 29.0727 20.481V18.7424C29.0784 17.5957 28.7181 16.477 28.0442 15.5492C26.9833 14.0384 25.4444 12.9291 23.6757 12.4002V11.2689C23.6757 10.9442 23.5467 10.6327 23.3171 10.4031C23.0875 10.1735 22.7761 10.0445 22.4514 10.0445H20.7764C17.216 10.0445 14.5224 12.7528 13.4303 15.4317C13.0679 16.3485 12.8818 17.3255 12.8818 18.3114V20.4614C12.5232 20.5988 12.1942 20.8033 11.9121 21.0637C11.6196 21.3431 11.3872 21.6791 11.2289 22.0513C11.0706 22.4235 10.9898 22.824 10.9914 23.2284C10.9925 24.0507 11.1717 24.8631 11.5166 25.6096C11.8615 26.3561 12.364 27.019 12.9895 27.5528C13.2307 29.1774 13.8368 30.7262 14.7624 32.083V34.5317C12.4634 35.1908 10.2891 36.225 8.32715 37.5926C6.14871 35.5918 4.49166 33.0895 3.49992 30.3028C2.50817 27.5162 2.21173 24.5297 2.63633 21.6025ZM20.8254 45.3599L11.5203 39.9727C11.1089 39.7344 10.7089 39.4814 10.3204 39.2136C12.0832 38.082 14.0185 37.245 16.0504 36.7355C16.3782 36.6518 16.6694 36.4626 16.8791 36.1971C17.0889 35.9317 17.2055 35.6046 17.2111 35.2663V31.9018C17.2104 31.4977 17.0799 31.1046 16.8389 30.7803C16.0224 29.5812 15.5174 28.1977 15.3697 26.7546C15.3526 26.5847 15.3003 26.4202 15.2159 26.2718C15.1316 26.1234 15.0171 25.9942 14.8799 25.8926C14.4506 25.5942 14.0996 25.1967 13.8566 24.7337C13.6137 24.2708 13.4859 23.7561 13.4841 23.2333C13.4828 23.1585 13.4969 23.0842 13.5255 23.0151C13.5542 22.946 13.5968 22.8836 13.6507 22.8317C13.7615 22.7264 13.9091 22.6684 14.062 22.6701C14.3921 22.6797 14.7126 22.5582 14.9534 22.3322C15.0718 22.2196 15.1666 22.0845 15.2322 21.9348C15.2978 21.7851 15.3328 21.6238 15.3354 21.4604L15.3697 18.3261C15.3661 17.6477 15.4907 16.9747 15.737 16.3426C16.4961 14.4816 18.4061 12.4785 20.8156 12.4785H21.2711V13.4091C21.2706 13.712 21.3826 14.0044 21.5852 14.2296C21.7878 14.4549 22.0668 14.597 22.3681 14.6285C23.1207 14.741 23.8416 15.009 24.485 15.4154C25.1283 15.8218 25.68 16.3577 26.1048 16.9891C26.4716 17.5001 26.6686 18.1134 26.668 18.7424V21.4457C26.668 21.7705 26.797 22.0819 27.0266 22.3115C27.2563 22.5411 27.5677 22.6701 27.8924 22.6701C28.0412 22.672 28.1835 22.7317 28.2891 22.8366C28.3409 22.8878 28.3819 22.9488 28.4097 23.0161C28.4374 23.0834 28.4514 23.1556 28.4507 23.2284C28.4492 23.7407 28.327 24.2453 28.0938 24.7015C27.8606 25.1576 27.5232 25.5522 27.1088 25.8534C26.9727 25.9539 26.859 26.0815 26.7747 26.2282C26.6904 26.3749 26.6374 26.5374 26.6191 26.7056C26.4583 28.2047 25.9097 29.636 25.0274 30.8586C24.7787 31.1873 24.643 31.5876 24.6405 31.9997V35.2663C24.6455 35.6033 24.7607 35.9294 24.9686 36.1947C25.1764 36.46 25.4654 36.65 25.7914 36.7355C27.75 37.2565 29.6143 38.0829 31.3157 39.1843C30.9272 39.452 30.5272 39.705 30.1158 39.9434L20.8254 45.3599Z" fill="#2B80FF"/>
</svg>
