<svg width="58" height="48" viewBox="0 0 58 48" fill="none" xmlns="http://www.w3.org/2000/svg">
<path d="M58 31.3033C57.9898 30.2218 57.6015 29.1785 56.9034 28.3569C57.5315 27.5278 57.8738 26.5148 57.8782 25.4718C57.8733 24.3174 57.4161 23.2116 56.6059 22.3953C55.7957 21.579 54.6983 21.1183 53.5525 21.1135H44.5966C45.7445 18.6955 46.3676 16.0587 46.4244 13.379C46.4244 10.4939 44.9013 8.22265 42.0988 6.87218C41.5727 6.62137 40.9978 6.4918 40.4158 6.4929C39.8339 6.49399 39.2594 6.62572 38.7343 6.8785C38.2092 7.13129 37.7466 7.49878 37.3801 7.95427C37.0136 8.40976 36.7524 8.9418 36.6156 9.51173L36.0672 11.5988C35.1643 15.2467 33.1382 18.513 30.2794 20.9293C29.9139 21.1748 29.6093 21.4204 29.2437 21.6659C28.9149 21.0944 28.4445 20.6186 27.8785 20.285C27.3125 19.9515 26.6704 19.7716 26.0147 19.763C26.3141 18.6844 26.4577 17.568 26.4412 16.4482V7.97711C26.4439 7.62259 26.3136 7.28011 26.0764 7.0183C25.8391 6.75648 25.5124 6.59466 25.1618 6.56526C16.9979 5.70587 14.6219 1.04063 14.5 0.795086C14.3809 0.556084 14.1982 0.355161 13.9722 0.214757C13.7463 0.0743542 13.4861 0 13.2206 0C12.9552 0 12.695 0.0743542 12.469 0.214757C12.2431 0.355161 12.0604 0.556084 11.9412 0.795086C11.8194 0.97924 9.44331 5.70587 1.27945 6.56526C0.928794 6.59466 0.602113 6.75648 0.364856 7.0183C0.1276 7.28011 -0.00270626 7.62259 4.26221e-05 7.97711V16.4482C4.26221e-05 26.5767 12.0631 32.9607 12.5505 33.2063C12.7514 33.3319 12.9842 33.3958 13.2206 33.3904C13.4559 33.3872 13.6865 33.3238 13.8908 33.2063C14.0126 33.1449 14.6828 32.7766 15.7185 32.1627V44.0714C15.7249 45.1113 16.1378 46.1068 16.8676 46.8422C17.5975 47.5776 18.5855 47.9936 19.6177 48H25.8929C26.6499 47.9948 27.3899 47.7727 28.0264 47.3597C28.6628 46.9466 29.1696 46.3597 29.4874 45.6674C33.1885 46.7583 37.0241 47.3163 40.8803 47.3248H50.75C51.8958 47.3199 52.9932 46.8592 53.8034 46.0429C54.6135 45.2266 55.0708 44.1209 55.0756 42.9664C55.0898 42.2134 54.9002 41.4707 54.5273 40.818C55.1419 40.423 55.6481 39.8787 55.9994 39.2351C56.3507 38.5916 56.5358 37.8694 56.5378 37.1349C56.5227 36.3856 56.335 35.6501 55.9895 34.9864C56.6041 34.5914 57.1103 34.0471 57.4616 33.4036C57.8129 32.76 57.998 32.0378 58 31.3033ZM13.2206 30.3212C10.8446 28.9093 2.86349 23.6302 2.86349 16.4482V9.2048C8.52945 8.34542 11.6975 5.70587 13.2206 3.86433C14.8047 5.70587 17.9118 8.28403 23.5778 9.2048V16.4482C23.6387 23.6302 15.5967 28.9093 13.2206 30.3212ZM26.9895 44.0714H26.9286C26.928 44.2135 26.8987 44.354 26.8426 44.4843C26.7865 44.6147 26.7047 44.7322 26.6021 44.8298C26.4996 44.9274 26.3785 45.003 26.2461 45.052C26.1137 45.101 25.9728 45.1224 25.832 45.1149H19.6177C19.3358 45.12 19.0631 45.0135 18.8581 44.8185C18.6532 44.6234 18.5321 44.3552 18.521 44.0714V30.137C21.1384 28.1069 23.3155 25.5582 24.9181 22.6481H25.8929C26.1748 22.643 26.4474 22.7495 26.6524 22.9445C26.8574 23.1396 26.9784 23.4078 26.9895 23.6916V44.0714ZM50.8719 29.8301H53.5525C53.9403 29.8301 54.3122 29.9853 54.5864 30.2616C54.8607 30.5379 55.0147 30.9126 55.0147 31.3033C55.0147 31.6941 54.8607 32.0688 54.5864 32.3451C54.3122 32.6214 53.9403 32.7766 53.5525 32.7766H50.3235C50.1395 32.7766 49.9573 32.8131 49.7873 32.884C49.6173 32.955 49.4628 33.059 49.3327 33.1901C49.2026 33.3212 49.0994 33.4768 49.0289 33.6481C48.9585 33.8194 48.9223 34.003 48.9223 34.1884C48.9223 34.3738 48.9585 34.5574 49.0289 34.7287C49.0994 34.9 49.2026 35.0556 49.3327 35.1868C49.4628 35.3179 49.6173 35.4218 49.7873 35.4928C49.9573 35.5638 50.1395 35.6003 50.3235 35.6003H52.1513C52.3433 35.6003 52.5334 35.6384 52.7108 35.7124C52.8882 35.7864 53.0494 35.895 53.1852 36.0318C53.321 36.1686 53.4287 36.331 53.5021 36.5097C53.5756 36.6885 53.6134 36.88 53.6134 37.0735C53.6134 37.267 53.5756 37.4585 53.5021 37.6373C53.4287 37.816 53.321 37.9784 53.1852 38.1152C53.0494 38.252 52.8882 38.3606 52.7108 38.4346C52.5334 38.5086 52.3433 38.5467 52.1513 38.5467H49.2878C48.9162 38.5467 48.5598 38.6955 48.297 38.9603C48.0342 39.225 47.8866 39.5841 47.8866 39.9586C47.8866 40.333 48.0342 40.6921 48.297 40.9569C48.5598 41.2217 48.9162 41.3704 49.2878 41.3704H50.6891C51.0769 41.3704 51.4488 41.5257 51.723 41.8019C51.9972 42.0782 52.1513 42.4529 52.1513 42.8437C52.1513 43.2344 51.9972 43.6091 51.723 43.8854C51.4488 44.1617 51.0769 44.3169 50.6891 44.3169H40.8193C37.0831 44.3082 33.3682 43.7498 29.792 42.6595V24.7352C30.5231 24.3055 31.2542 23.8144 32.0462 23.2619C35.4048 20.4702 37.7771 16.6588 38.8088 12.3968L39.3572 10.2483C39.4575 9.93238 39.676 9.66819 39.9664 9.51173C40.2791 9.38474 40.6285 9.38474 40.9412 9.51173C42.7689 10.3711 43.6219 11.5988 43.6219 13.379C43.6219 17.7373 41.124 21.7273 41.124 21.7887C40.994 22.0101 40.9204 22.2605 40.9097 22.5176C40.8991 22.7746 40.9518 23.0304 41.063 23.2619C41.1772 23.4874 41.352 23.6761 41.5674 23.8063C41.7829 23.9366 42.0303 24.0032 42.2815 23.9985H53.5525C53.9403 23.9985 54.3122 24.1538 54.5864 24.43C54.8607 24.7063 55.0147 25.0811 55.0147 25.4718C55.0147 25.8625 54.8607 26.2372 54.5864 26.5135C54.3122 26.7898 53.9403 26.945 53.5525 26.945H50.8719C50.6869 26.9417 50.5032 26.9759 50.3317 27.0457C50.1602 27.1155 50.0044 27.2193 49.8737 27.3511C49.7429 27.4829 49.6398 27.6399 49.5705 27.8127C49.5013 27.9855 49.4673 28.1705 49.4706 28.3569C49.4615 28.5476 49.491 28.7382 49.5575 28.917C49.6239 29.0958 49.7257 29.2592 49.8569 29.397C49.988 29.5349 50.1456 29.6444 50.3201 29.7188C50.4946 29.7933 50.6823 29.8312 50.8719 29.8301V29.8301ZM24.5525 41.2477C24.5525 41.6119 24.4454 41.9679 24.2445 42.2708C24.0437 42.5736 23.7582 42.8097 23.4243 42.949C23.0903 43.0884 22.7228 43.1249 22.3682 43.0538C22.0137 42.9828 21.688 42.8074 21.4324 42.5498C21.1768 42.2923 21.0027 41.9642 20.9322 41.6069C20.8617 41.2497 20.8979 40.8794 21.0362 40.5429C21.1746 40.2064 21.4088 39.9188 21.7094 39.7165C22.01 39.5141 22.3633 39.4061 22.7248 39.4061C23.2096 39.4061 23.6745 39.6001 24.0172 39.9455C24.36 40.2909 24.5525 40.7593 24.5525 41.2477ZM17.9118 18.2284H14.6219V21.5431C14.6219 21.9176 14.4742 22.2767 14.2115 22.5415C13.9487 22.8063 13.5923 22.955 13.2206 22.955C12.849 22.955 12.4926 22.8063 12.2298 22.5415C11.967 22.2767 11.8194 21.9176 11.8194 21.5431V18.2284H8.52945C8.15781 18.2284 7.8014 18.0796 7.53861 17.8148C7.27582 17.5501 7.12819 17.191 7.12819 16.8165C7.12819 16.4421 7.27582 16.083 7.53861 15.8182C7.8014 15.5534 8.15781 15.4047 8.52945 15.4047H11.8194V12.0899C11.8194 11.7154 11.967 11.3563 12.2298 11.0916C12.4926 10.8268 12.849 10.678 13.2206 10.678C13.5923 10.678 13.9487 10.8268 14.2115 11.0916C14.4742 11.3563 14.6219 11.7154 14.6219 12.0899V15.4047H17.9118C18.0981 15.3959 18.2842 15.4265 18.4581 15.4943C18.6321 15.5622 18.79 15.6659 18.9219 15.7987C19.0538 15.9316 19.1567 16.0908 19.2241 16.2661C19.2914 16.4413 19.3217 16.6288 19.3131 16.8165C19.3164 17.0028 19.2824 17.1879 19.2131 17.3607C19.1439 17.5335 19.0408 17.6905 18.91 17.8223C18.7792 17.954 18.6234 18.0579 18.4519 18.1277C18.2804 18.1975 18.0967 18.2317 17.9118 18.2284V18.2284Z" fill="#2B80FF"/>
</svg>
