<svg width="46" height="32" viewBox="0 0 46 32" fill="none" xmlns="http://www.w3.org/2000/svg">
<path d="M27.7923 12.3537C27.7923 11.7167 28.3043 11.2 28.9347 11.2C29.5663 11.2 30.0779 11.7167 30.0779 12.3537C30.0779 12.991 29.5663 13.5066 28.9347 13.5066C28.3043 13.5066 27.7923 12.991 27.7923 12.3537Z" fill="white"/>
<path d="M31.077 12.1432L33.3941 11.7246V20.7037H31.077V12.1432Z" fill="white"/>
<path d="M34.4615 12.1432V20.7037H36.7801V11.7246L34.4615 12.1432Z" fill="white"/>
<path d="M27.7763 14.1361V20.7035H30.0946V14.1361H27.7763Z" fill="white"/>
<path d="M23.2384 17.0088C23.2384 15.0799 24.3267 14.1094 26.4686 14.0397C26.4686 14.0397 26.8554 14.0247 27.0838 14.0738V15.9934C25.726 16.0406 25.576 16.5356 25.576 17.6901V20.7034H23.2384V17.0088Z" fill="white"/>
<path d="M20.1791 14.1287L20.1673 14.1597C20.0843 14.3796 19.7066 15.3804 18.8588 16.4152V11.7246L16.4663 12.2024V20.7037H18.8588V18.0755C19.5517 19.1247 19.894 20.7037 19.894 20.7037H22.7591C22.4759 19.5144 21.2362 17.322 21.2362 17.322C22.3493 15.8973 22.8375 14.3802 22.9155 14.1287H20.1791Z" fill="white"/>
<path d="M11.4827 14.385C11.4827 15.0014 12.1614 15.046 12.4544 15.0651C14.603 15.2105 15.8835 16.272 15.8835 17.9054C15.8835 19.3465 14.7385 20.8 12.1841 20.8C10.9997 20.8 9.98908 20.6823 9.09281 20.4444V18.3468C9.69131 18.5952 10.6774 18.856 11.6932 18.856C12.6203 18.856 13.1717 18.5465 13.1717 18.0204C13.1717 17.3857 12.503 17.3444 12.2466 17.3285L12.2439 17.3283C9.25171 17.1226 8.92944 15.336 8.92944 14.5776C8.92944 13.2605 9.85541 11.7246 12.4689 11.7246C13.9848 11.7246 14.802 11.9633 15.5059 12.2117L15.5412 12.2226V14.2599L15.5148 14.2524C15.2323 14.1317 14.9004 14.0133 14.9004 14.0133C14.3041 13.8331 13.4702 13.6412 12.8257 13.6412C12.4592 13.6412 11.4827 13.6412 11.4827 14.385Z" fill="white"/>
</svg>
