<svg width="20" height="20" viewBox="0 0 20 20" fill="none" xmlns="http://www.w3.org/2000/svg">
<path d="M10.092 15.8025C6.72799 15.8025 5.23285 14.0741 5.23285 12.8395C5.23285 12.5926 5.3575 12.2222 5.60669 12.0988C5.85587 11.8519 6.10503 11.8519 6.35421 11.8519C7.72473 11.8519 7.35095 13.9506 10.092 13.9506C11.4625 13.9506 12.2101 13.0864 12.2101 12.3457C12.2101 11.8519 11.9609 11.358 11.0887 11.1111L8.09854 10.3704C5.73128 9.75309 5.35749 8.39506 5.35749 7.28395C5.35749 4.69136 7.72476 3.82716 9.96742 3.82716C11.9609 3.82716 14.4527 4.93827 14.4527 6.41975C14.4527 7.03704 13.9543 7.40741 13.2068 7.40741C11.9609 7.40741 12.2101 5.67901 9.71822 5.67901C8.4723 5.67901 7.84934 6.2963 7.84934 7.03704C7.84934 7.77778 8.84603 8.14815 9.59358 8.2716L11.8363 8.76543C14.2036 9.25926 14.8265 10.7407 14.8265 11.9753C14.8265 14.321 13.2068 15.8025 10.092 15.8025ZM19.3119 11.4815C19.4364 10.9877 19.4364 10.3704 19.4364 9.87654C19.4364 7.16049 18.1905 4.5679 16.0724 2.71605C13.9543 0.864197 11.0887 0.246914 8.34766 0.617284C7.60011 0.246914 6.60343 0 5.60669 0C3.61321 0 1.74429 1.11111 0.747554 2.83951C-0.249185 4.5679 -0.249185 6.66667 0.747554 8.39506C0.249185 11.358 1.1213 14.4444 3.36396 16.6667C5.48203 18.7654 8.59689 19.7531 11.5871 19.2593C12.4593 19.7531 13.3314 20 14.3282 20C16.3216 20 18.1905 18.8889 19.1872 17.1605C20.184 15.3086 20.3086 13.2099 19.3119 11.4815Z" fill="#8DB9CA"/>
</svg>
