<svg width="48" height="48" viewBox="0 0 48 48" fill="none" xmlns="http://www.w3.org/2000/svg">
<path d="M27.3616 3.20521C27.3616 3.36156 27.2834 3.47883 27.1661 3.59609C26.658 4.02606 26.1498 4.45603 25.6026 4.88599C25.4463 5.00326 25.4463 5.12052 25.4853 5.27687C25.6417 5.90228 25.798 6.52769 25.9544 7.19218C26.0326 7.42671 25.9544 7.62215 25.759 7.7785C25.6026 7.89577 25.3681 7.89577 25.1336 7.7785C24.5472 7.42671 24 7.07492 23.4137 6.68404C23.2964 6.60586 23.2182 6.60586 23.101 6.68404C22.5537 7.03583 22.0065 7.38762 21.4593 7.70033C21.3029 7.81759 21.1466 7.85668 20.9511 7.81759C20.6775 7.73941 20.5212 7.4658 20.5993 7.19218C20.7557 6.4886 20.9511 5.8241 21.1075 5.12052C21.1466 5.00326 21.1075 4.96417 21.0293 4.88599C20.5212 4.49511 20.0521 4.06515 19.5831 3.63518C19.3876 3.47883 19.2313 3.32248 19.2704 3.04886C19.2704 2.77524 19.4658 2.5798 19.7394 2.5798C20.443 2.54072 21.1857 2.50163 21.8893 2.42345C22.0065 2.42345 22.0456 2.34528 22.0847 2.2671C22.3192 1.68078 22.5537 1.09446 22.8274 0.469055C22.8664 0.429967 22.8664 0.351792 22.9055 0.312704C23.0228 0.117264 23.1792 0 23.4137 0C23.6482 0 23.8046 0.117264 23.8827 0.351792C24.1564 0.977199 24.3909 1.64169 24.6645 2.2671C24.5863 2.42345 24.6645 2.50163 24.8208 2.50163C25.4463 2.54072 26.0717 2.5798 26.6971 2.61889C26.7752 2.61889 26.8925 2.61889 26.9707 2.65798C27.2052 2.73616 27.3616 2.97068 27.3616 3.20521Z" fill="#2B80FF"/>
<path d="M41.0423 11.6873C40.9251 11.8046 40.7687 11.8436 40.6124 11.8046C39.9479 11.7264 39.2834 11.6873 38.6189 11.6091C38.4235 11.57 38.3453 11.6482 38.2671 11.8046C37.9544 12.3518 37.6026 12.9381 37.2508 13.4853C37.1336 13.6808 36.9381 13.798 36.7036 13.759C36.4691 13.7199 36.3127 13.5635 36.2736 13.2899C36.1173 12.6254 35.9609 11.9609 35.8437 11.2964C35.8046 11.1401 35.7655 11.101 35.6091 11.0619C34.9837 10.9055 34.3583 10.7492 33.6938 10.6319C33.4984 10.5928 33.342 10.5147 33.2638 10.3583C33.1075 10.1238 33.1857 9.81107 33.4593 9.65472C34.0847 9.30293 34.671 8.91205 35.2964 8.56026C35.3746 8.52117 35.4137 8.443 35.4137 8.36482C35.3746 7.73941 35.2964 7.07492 35.2573 6.44951C35.2182 6.21498 35.2182 5.98046 35.4137 5.8241C35.6091 5.66775 35.8827 5.62866 36.0782 5.8241C36.6254 6.29316 37.1726 6.76222 37.6808 7.23127C37.759 7.30945 37.8371 7.27036 37.9153 7.27036C38.5016 7.03583 39.0879 6.76221 39.7134 6.52769C39.7524 6.4886 39.8306 6.4886 39.8697 6.44951C40.0651 6.37134 40.2606 6.41042 40.456 6.56677C40.6124 6.72313 40.6515 6.91857 40.5733 7.15309C40.2997 7.7785 40.0261 8.40391 39.7524 9.0684C39.7134 9.18567 39.7134 9.26384 39.7915 9.38111C40.2215 9.85016 40.6124 10.3192 41.0423 10.8274C41.1205 10.9055 41.1596 10.9837 41.1987 11.0619C41.2769 11.2573 41.2378 11.4919 41.0423 11.6873Z" fill="#2B80FF"/>
<path d="M44.7948 27.3616C44.6384 27.3616 44.5212 27.2834 44.4039 27.1661C43.9739 26.658 43.544 26.1498 43.114 25.6026C42.9967 25.4463 42.8795 25.4463 42.7231 25.4853C42.0977 25.6417 41.4723 25.798 40.8078 25.9544C40.5733 26.0326 40.3778 25.9544 40.2215 25.759C40.1042 25.6026 40.1042 25.3681 40.2215 25.1336C40.5733 24.5472 40.9251 24 41.316 23.4137C41.3941 23.2964 41.3941 23.2182 41.316 23.101C40.9642 22.5537 40.6124 22.0065 40.2997 21.4593C40.1824 21.3029 40.1433 21.1466 40.1824 20.9511C40.2606 20.6775 40.5342 20.5212 40.8078 20.5993C41.5114 20.7557 42.1759 20.9511 42.8795 21.1075C42.9967 21.1466 43.0358 21.1075 43.114 21.0293C43.5049 20.5212 43.9349 20.0521 44.3648 19.5831C44.5212 19.3876 44.6775 19.2313 44.9511 19.2704C45.2248 19.2704 45.4202 19.4658 45.4202 19.7394C45.4593 20.443 45.4984 21.1857 45.5765 21.8893C45.5765 22.0065 45.6547 22.0456 45.7329 22.0847C46.3192 22.3192 46.9055 22.5537 47.5309 22.8274C47.57 22.8664 47.6482 22.8664 47.6873 22.9055C47.8827 23.0228 48 23.1792 48 23.4137C48 23.6482 47.8827 23.8046 47.6482 23.8827C47.0228 24.1564 46.3583 24.3909 45.7329 24.6645C45.6156 24.7036 45.5375 24.7818 45.5375 24.9381C45.4984 25.5635 45.4593 26.1889 45.4202 26.8143C45.4202 26.8925 45.4202 27.0098 45.3811 27.0879C45.2638 27.2052 45.0293 27.3616 44.7948 27.3616Z" fill="#2B80FF"/>
<path d="M36.3127 41.0423C36.1954 40.9251 36.1564 40.7687 36.1954 40.6124C36.2736 39.9479 36.3127 39.2834 36.3909 38.6189C36.43 38.4235 36.3518 38.3453 36.1954 38.2671C35.6482 37.9544 35.0619 37.6026 34.5147 37.2508C34.3192 37.1336 34.202 36.9381 34.241 36.7036C34.2801 36.4691 34.4365 36.3127 34.7101 36.2736C35.3746 36.1173 36.0391 35.9609 36.7036 35.8437C36.8599 35.8046 36.899 35.7655 36.9381 35.6091C37.0945 34.9837 37.2508 34.3583 37.3681 33.6938C37.4072 33.4984 37.4853 33.342 37.6417 33.2638C37.8762 33.1075 38.1889 33.1857 38.3453 33.4593C38.6971 34.0847 39.0879 34.671 39.4397 35.2964C39.4788 35.3746 39.557 35.4137 39.6352 35.4137C40.2606 35.3746 40.9251 35.2964 41.5505 35.2573C41.785 35.2182 42.0195 35.2182 42.1759 35.4137C42.3322 35.6091 42.3713 35.8827 42.1759 36.0782C41.7068 36.6254 41.2378 37.1726 40.7687 37.6808C40.6906 37.759 40.7296 37.8371 40.7296 37.9153C40.9642 38.5016 41.2378 39.0879 41.4723 39.7134C41.5114 39.7524 41.5114 39.8306 41.5505 39.8697C41.6287 40.0651 41.5896 40.2606 41.4332 40.456C41.2769 40.6124 41.0814 40.6515 40.8469 40.5733C40.2215 40.2997 39.5961 40.0261 38.9316 39.7524C38.8143 39.7134 38.7362 39.7134 38.6189 39.7915C38.1498 40.2215 37.6808 40.6124 37.1726 41.0423C37.0945 41.1205 37.0163 41.1596 36.9381 41.1987C36.7427 41.2769 36.5081 41.2378 36.3127 41.0423Z" fill="#2B80FF"/>
<path d="M20.6384 44.7948C20.6384 44.6384 20.7166 44.5212 20.8339 44.4039C21.342 43.9739 21.8502 43.544 22.3974 43.114C22.5537 42.9967 22.5537 42.8795 22.5147 42.7231C22.3583 42.0977 22.202 41.4723 22.0456 40.8078C21.9674 40.5733 22.0456 40.3778 22.241 40.2215C22.3974 40.1042 22.6319 40.1042 22.8664 40.2215C23.4528 40.5733 24 40.9251 24.5863 41.316C24.7036 41.3941 24.7818 41.3941 24.899 41.316C25.4463 40.9642 25.9935 40.6124 26.5407 40.2997C26.6971 40.1824 26.8534 40.1433 27.0489 40.1824C27.3225 40.2606 27.4788 40.5342 27.4007 40.8078C27.2443 41.5114 27.0489 42.1759 26.8925 42.8795C26.8534 42.9967 26.8925 43.0358 26.9707 43.114C27.4788 43.5049 27.9479 43.9349 28.4169 44.3648C28.6124 44.5212 28.7687 44.6775 28.7296 44.9511C28.7296 45.2248 28.5342 45.4202 28.2606 45.4202C27.557 45.4593 26.8143 45.4984 26.1108 45.5765C25.9935 45.5765 25.9544 45.6547 25.9153 45.7329C25.6808 46.3192 25.4463 46.9055 25.1726 47.5309C25.1336 47.57 25.1336 47.6482 25.0945 47.6873C24.9772 47.8827 24.8208 48 24.5863 48C24.3518 48 24.1954 47.8827 24.1173 47.6482C23.8437 47.0228 23.6091 46.3583 23.3355 45.7329C23.2964 45.6156 23.2182 45.5375 23.0619 45.5375C22.4365 45.4984 21.8111 45.4593 21.1857 45.4202C21.1075 45.4202 20.9902 45.4202 20.9121 45.3811C20.7948 45.2638 20.6384 45.0293 20.6384 44.7948Z" fill="#2B80FF"/>
<path d="M6.95765 36.3127C7.07492 36.1954 7.23127 36.1564 7.38762 36.1954C8.05212 36.2736 8.71661 36.3127 9.38111 36.3909C9.57655 36.43 9.65472 36.3518 9.7329 36.1954C10.0456 35.6482 10.3974 35.0619 10.7492 34.5147C10.8664 34.3192 11.0619 34.202 11.2964 34.241C11.5309 34.2801 11.6873 34.4365 11.7264 34.7101C11.8827 35.3746 12.0391 36.0391 12.1564 36.7036C12.1954 36.8599 12.2345 36.899 12.3909 36.9381C13.0163 37.0945 13.6417 37.2508 14.3062 37.3681C14.5016 37.4072 14.658 37.4853 14.7362 37.6417C14.8925 37.8762 14.8143 38.1889 14.5407 38.3453C13.9153 38.6971 13.329 39.0879 12.7036 39.4397C12.6254 39.4788 12.5863 39.557 12.5863 39.6352C12.6254 40.2606 12.7036 40.9251 12.7427 41.5505C12.7818 41.785 12.7818 42.0195 12.5863 42.1759C12.3909 42.3322 12.1173 42.3713 11.9218 42.1759C11.3746 41.7068 10.8274 41.2378 10.3192 40.7687C10.241 40.6906 10.1629 40.7296 10.0847 40.7296C9.49837 40.9642 8.91205 41.2378 8.28664 41.4723C8.24756 41.5114 8.16938 41.5114 8.13029 41.5505C7.93485 41.6287 7.73941 41.5896 7.54397 41.4332C7.38762 41.2769 7.34853 41.0814 7.42671 40.8469C7.70033 40.2215 7.97394 39.5961 8.24756 38.9316C8.28664 38.8143 8.28664 38.7362 8.20847 38.6189C7.7785 38.1498 7.38762 37.6808 6.95765 37.1726C6.87948 37.0945 6.84039 37.0163 6.8013 36.9381C6.72313 36.7427 6.76221 36.5081 6.95765 36.3127Z" fill="#2B80FF"/>
<path d="M3.20521 20.6384C3.36156 20.6384 3.47883 20.7166 3.59609 20.8339C4.02606 21.342 4.45603 21.8502 4.88599 22.3974C5.00326 22.5537 5.12052 22.5537 5.27687 22.5147C5.90228 22.3583 6.52769 22.202 7.19218 22.0456C7.42671 21.9674 7.62215 22.0456 7.7785 22.241C7.89577 22.3974 7.89577 22.6319 7.7785 22.8664C7.42671 23.4528 7.07492 24 6.68404 24.5863C6.60586 24.7036 6.60586 24.7818 6.68404 24.899C7.03583 25.4463 7.38762 25.9935 7.70033 26.5407C7.81759 26.6971 7.85668 26.8534 7.81759 27.0489C7.73941 27.3225 7.4658 27.4788 7.19218 27.4007C6.4886 27.2443 5.8241 27.0489 5.12052 26.8925C5.00326 26.8534 4.96417 26.8925 4.88599 26.9707C4.49511 27.4788 4.06515 27.9479 3.63518 28.4169C3.47883 28.6124 3.32248 28.7687 3.04886 28.7296C2.77524 28.7296 2.5798 28.5342 2.5798 28.2606C2.54072 27.557 2.50163 26.8143 2.42345 26.1108C2.42345 25.9935 2.34528 25.9544 2.2671 25.9153C1.68078 25.6808 1.09446 25.4463 0.469055 25.1726C0.429967 25.1336 0.351792 25.1336 0.312704 25.0945C0.117264 24.9772 0 24.8208 0 24.5863C0 24.3518 0.117264 24.1954 0.351792 24.1173C0.977199 23.8437 1.64169 23.6091 2.2671 23.3355C2.42345 23.4137 2.50163 23.3355 2.50163 23.1792C2.54072 22.5537 2.5798 21.9283 2.61889 21.3029C2.61889 21.2248 2.61889 21.1075 2.65798 21.0293C2.73616 20.7948 2.97068 20.6384 3.20521 20.6384Z" fill="#2B80FF"/>
<path d="M11.6873 6.95765C11.8046 7.07492 11.8436 7.23127 11.8046 7.38762C11.7264 8.05212 11.6873 8.71661 11.6091 9.38111C11.57 9.57655 11.6482 9.65472 11.8046 9.7329C12.3518 10.0456 12.9381 10.3974 13.4853 10.7492C13.6808 10.8664 13.798 11.0619 13.759 11.2964C13.7199 11.5309 13.5635 11.6873 13.2899 11.7264C12.6254 11.8827 11.9609 12.0391 11.2964 12.1564C11.1401 12.1954 11.101 12.2345 11.0619 12.3909C10.9055 13.0163 10.7492 13.6417 10.6319 14.3062C10.5928 14.5016 10.5147 14.658 10.3583 14.7362C10.1238 14.8925 9.81107 14.8143 9.65472 14.5407C9.30293 13.9153 8.91205 13.329 8.56026 12.7036C8.52117 12.6254 8.443 12.5863 8.36482 12.5863C7.73941 12.6254 7.07492 12.7036 6.44951 12.7427C6.21498 12.7818 5.98046 12.7818 5.8241 12.5863C5.66775 12.3909 5.62866 12.1173 5.8241 11.9218C6.29316 11.3746 6.76222 10.8274 7.23127 10.3192C7.30945 10.241 7.27036 10.1629 7.27036 10.0847C7.03583 9.49837 6.76221 8.91205 6.52769 8.28664C6.4886 8.24756 6.4886 8.16938 6.44951 8.13029C6.37134 7.93485 6.41042 7.73941 6.56677 7.54397C6.72313 7.38762 6.91857 7.34853 7.15309 7.42671C7.7785 7.70033 8.40391 7.97394 9.0684 8.24756C9.18567 8.28664 9.26384 8.28664 9.38111 8.20847C9.85016 7.7785 10.3192 7.38762 10.8274 6.95765C10.9055 6.87948 10.9837 6.84039 11.0619 6.8013C11.2573 6.72313 11.4919 6.76221 11.6873 6.95765Z" fill="#2B80FF"/>
<path d="M34.4365 19.1922L34.3583 19.114C34.3192 19.0749 34.3192 19.0749 34.2801 19.0749L34.241 19.0358C34.241 19.0358 34.202 19.0358 34.202 18.9967L34.0847 18.9577C34.0456 18.9186 33.9674 18.9186 33.9283 18.8795C32.9902 18.5668 31.9739 18.7231 31.0358 18.8013C30.9967 18.8013 30.9577 18.8013 30.9186 18.8013C30.8404 18.8013 30.7231 18.8013 30.5668 18.8013C30.5277 18.8013 30.4495 18.8013 30.3713 18.8013C30.3322 18.8013 30.2932 18.8013 30.215 18.8013C30.0195 18.8013 29.785 18.8013 29.5896 18.8404C29.5505 18.8404 29.5114 18.8404 29.4723 18.8404C29.4332 18.8404 29.3941 18.8404 29.3941 18.8404C29.316 18.8404 29.2769 18.8404 29.1987 18.8404C29.0814 18.8404 28.9642 18.8795 28.886 18.8795C28.8469 18.8795 28.8078 18.8795 28.8078 18.8795C28.7687 18.8795 28.7687 18.8404 28.7687 18.8404L29.0423 17.9023C29.1987 17.316 29.3941 16.7296 29.5505 16.1433C29.8241 15.3225 29.9023 14.6189 29.8241 13.9935C29.7459 13.1726 29.2378 12.3909 28.5342 11.9609C28.1433 11.7264 27.6743 11.57 27.2052 11.57C27.1661 11.57 27.127 11.57 27.0879 11.57C26.658 11.57 26.3844 11.8436 26.3453 12.2736C26.3062 12.8208 26.228 13.329 26.1498 13.8371C26.0326 14.6971 25.798 15.4007 25.4463 15.987C25.2508 16.3388 25.0163 16.6515 24.7427 16.9251C24.3909 17.316 24 17.7459 23.57 18.215L22.5928 19.3094C22.3583 19.5831 22.1238 19.8176 21.8893 20.0521C21.8502 20.0912 21.772 20.1694 21.6938 20.2085C21.5375 20.3648 21.342 20.4821 21.1466 20.5603C21.0293 20.5993 20.873 20.6775 20.6775 20.7166C19.8567 20.9511 19.3876 21.1857 19.3485 21.6547C19.3485 21.9283 19.3094 22.1629 19.3094 22.3974V22.5537C19.3094 22.7492 19.3094 22.9837 19.3094 23.1792V30.8013H20.6775C21.1075 30.8795 21.5765 30.9577 22.1629 31.0358L22.4365 31.0749C23.57 31.2704 24.6645 31.4267 25.7199 31.5831C28.3388 31.8958 31.4658 32.6384 33.3811 30.2932C34.1629 29.316 34.241 27.9479 34.3974 26.7752C34.671 24.8599 35.0228 22.9055 35.2964 20.9902C35.3355 20.3648 35.0228 19.6222 34.4365 19.1922Z" fill="#2B80FF"/>
<path d="M17.0423 19.7785H13.5635C13.0945 19.7785 12.7427 20.1303 12.7427 20.5993V30.8795C12.7427 31.3485 13.0945 31.7003 13.5635 31.7003H17.0423C17.5114 31.7003 17.8632 31.3485 17.8632 30.8795V20.5993C17.8632 20.1303 17.5114 19.7785 17.0423 19.7785Z" fill="#2B80FF"/>
</svg>
