<svg width="114" height="28" viewBox="0 0 114 28" fill="none" xmlns="http://www.w3.org/2000/svg">
<path d="M29.9631 9.92249H41.4961V12.0705H36.9551V24.1792H34.4661V12.0705H29.9441L29.9631 9.92249ZM41.0021 13.8573H43.1301V15.8533H43.1681C43.2441 15.5681 43.3771 15.302 43.5671 15.0359C43.7571 14.7698 43.9851 14.5226 44.2701 14.3135C44.5361 14.0854 44.8401 13.9144 45.1821 13.7813C45.5051 13.6482 45.8471 13.5722 46.1891 13.5722C46.4551 13.5722 46.6451 13.5912 46.7401 13.5912C46.8351 13.6102 46.9491 13.6292 47.0441 13.6292V15.8152C46.8921 15.7772 46.7211 15.7582 46.5501 15.7392C46.3791 15.7202 46.2271 15.7012 46.0561 15.7012C45.6761 15.7012 45.3151 15.7772 44.9731 15.9293C44.6311 16.0814 44.3461 16.3095 44.0801 16.5946C43.8331 16.8987 43.6241 17.2599 43.4721 17.6971C43.3201 18.1343 43.2441 18.6476 43.2441 19.2178V24.1221H40.9641L41.0021 13.8573ZM57.4941 24.1792H55.2521V22.7345H55.2141C54.9291 23.2667 54.5111 23.6659 53.9601 23.9891C53.4091 24.3122 52.8391 24.4643 52.2691 24.4643C50.9201 24.4643 49.9321 24.1411 49.3241 23.4568C48.7161 22.7915 48.4121 21.765 48.4121 20.4154V13.8573H50.6921V20.1873C50.6921 21.0997 50.8631 21.746 51.2241 22.1072C51.5661 22.4874 52.0601 22.6775 52.6871 22.6775C53.1621 22.6775 53.5611 22.6014 53.8841 22.4493C54.2071 22.2973 54.4731 22.1072 54.6631 21.8601C54.8721 21.613 55.0051 21.3088 55.1001 20.9667C55.1951 20.6245 55.2331 20.2443 55.2331 19.8451V13.8573H57.5131V24.1792H57.4941ZM61.3701 20.8716C61.4461 21.5369 61.6931 21.9931 62.1301 22.2783C62.5671 22.5444 63.0991 22.6775 63.7071 22.6775C63.9161 22.6775 64.1631 22.6584 64.4291 22.6204C64.6951 22.5824 64.9611 22.5254 65.1891 22.4303C65.4361 22.3353 65.6261 22.2022 65.7781 22.0121C65.9301 21.8221 66.0061 21.5939 65.9871 21.3088C65.9681 21.0237 65.8731 20.7766 65.6641 20.5865C65.4551 20.3964 65.2081 20.2633 64.9041 20.1303C64.6001 20.0162 64.2391 19.9212 63.8401 19.8451C63.4411 19.7691 63.0421 19.674 62.6241 19.579C62.2061 19.484 61.7881 19.3699 61.3891 19.2368C60.9901 19.1038 60.6481 18.9327 60.3251 18.6856C60.0211 18.4575 59.7551 18.1723 59.5841 17.8112C59.3941 17.45 59.2991 17.0318 59.2991 16.4996C59.2991 15.9293 59.4321 15.4731 59.7171 15.0929C59.9831 14.7127 60.3441 14.4086 60.7621 14.1805C61.1801 13.9524 61.6551 13.7813 62.1681 13.6862C62.6811 13.5912 63.1751 13.5532 63.6311 13.5532C64.1631 13.5532 64.6761 13.6102 65.1511 13.7243C65.6261 13.8383 66.0821 14.0094 66.4621 14.2755C66.8611 14.5226 67.1841 14.8648 67.4311 15.264C67.6971 15.6632 67.8491 16.1574 67.9251 16.7277H65.5501C65.4361 16.1764 65.1891 15.8152 64.8091 15.6252C64.4101 15.4351 63.9731 15.34 63.4601 15.34C63.3081 15.34 63.0991 15.359 62.8901 15.378C62.6621 15.4161 62.4721 15.4541 62.2631 15.5301C62.0731 15.6061 61.9021 15.7202 61.7691 15.8533C61.6361 15.9863 61.5601 16.1764 61.5601 16.4045C61.5601 16.6896 61.6551 16.8987 61.8451 17.0698C62.0351 17.2409 62.2821 17.374 62.6051 17.507C62.9091 17.6211 63.2701 17.7161 63.6691 17.7922C64.0681 17.8682 64.4861 17.9632 64.9041 18.0583C65.3221 18.1533 65.7211 18.2674 66.1201 18.4004C66.5191 18.5335 66.8801 18.7046 67.1841 18.9517C67.4881 19.1798 67.7541 19.465 67.9441 19.8071C68.1341 20.1493 68.2291 20.5865 68.2291 21.0807C68.2291 21.689 68.0961 22.2022 67.8111 22.6394C67.5261 23.0576 67.1651 23.4188 66.7281 23.6849C66.2911 23.9511 65.7781 24.1411 65.2461 24.2742C64.6951 24.3883 64.1631 24.4643 63.6311 24.4643C62.9851 24.4643 62.3771 24.3883 61.8261 24.2362C61.2751 24.0841 60.7811 23.856 60.3821 23.5709C59.9831 23.2667 59.6601 22.9056 59.4321 22.4493C59.2041 22.0121 59.0711 21.4799 59.0521 20.8526H61.3511V20.8716H61.3701ZM68.8751 13.8573H70.6041V10.7399H72.8841V13.8383H74.9361V15.5301H72.8841V21.0427C72.8841 21.2898 72.9031 21.4799 72.9221 21.67C72.9411 21.8411 72.9981 21.9931 73.0551 22.1072C73.1311 22.2212 73.2451 22.3163 73.3781 22.3733C73.5301 22.4303 73.7201 22.4684 73.9861 22.4684C74.1381 22.4684 74.3091 22.4684 74.4611 22.4493C74.6131 22.4303 74.7841 22.4113 74.9361 22.3733V24.1411C74.6891 24.1792 74.4421 24.1982 74.1951 24.2172C73.9481 24.2552 73.7201 24.2552 73.4541 24.2552C72.8461 24.2552 72.3711 24.1982 72.0101 24.0841C71.6491 23.9701 71.3641 23.799 71.1551 23.5899C70.9461 23.3618 70.8131 23.0956 70.7371 22.7725C70.6611 22.4493 70.6231 22.0502 70.6041 21.632V15.5491H68.8751V13.8193V13.8573ZM76.5321 13.8573H78.6791V15.264H78.7171C79.0401 14.6557 79.4771 14.2375 80.0471 13.9714C80.6171 13.7053 81.2251 13.5722 81.9091 13.5722C82.7261 13.5722 83.4291 13.7053 84.0371 14.0094C84.6451 14.2945 85.1391 14.6747 85.5381 15.1879C85.9371 15.6822 86.2411 16.2715 86.4311 16.9368C86.6211 17.6021 86.7351 18.3244 86.7351 19.0658C86.7351 19.7691 86.6401 20.4344 86.4691 21.0807C86.2791 21.727 86.0131 22.3163 85.6521 22.8105C85.2911 23.3047 84.8351 23.7039 84.2651 24.0081C83.6951 24.3122 83.0491 24.4643 82.2891 24.4643C81.9661 24.4643 81.6241 24.4263 81.3011 24.3692C80.9781 24.3122 80.6551 24.2172 80.3511 24.0841C80.0471 23.9511 79.7621 23.78 79.5151 23.5709C79.2491 23.3618 79.0401 23.1147 78.8691 22.8485H78.8311V27.9999H76.5511V13.8573H76.5321ZM84.4931 19.0277C84.4931 18.5715 84.4361 18.1153 84.3031 17.6781C84.1891 17.2409 83.9991 16.8607 83.7521 16.5186C83.5051 16.1764 83.2011 15.9103 82.8591 15.7012C82.4981 15.4921 82.0801 15.397 81.6241 15.397C80.6741 15.397 79.9521 15.7202 79.4581 16.3855C78.9831 17.0508 78.7361 17.9442 78.7361 19.0468C78.7361 19.579 78.7931 20.0542 78.9261 20.4914C79.0591 20.9286 79.2301 21.3088 79.4961 21.632C79.7431 21.9551 80.0471 22.2022 80.4081 22.3923C80.7691 22.5824 81.1681 22.6775 81.6431 22.6775C82.1751 22.6775 82.5931 22.5634 82.9541 22.3543C83.3151 22.1452 83.6001 21.8601 83.8471 21.5369C84.0751 21.1948 84.2461 20.8146 84.3411 20.3774C84.4361 19.9212 84.4931 19.484 84.4931 19.0277ZM88.5021 9.92249H90.782V12.0705H88.5021V9.92249ZM88.5021 13.8573H90.782V24.1792H88.5021V13.8573ZM92.8151 9.92249H95.095V24.1792H92.8151V9.92249ZM102.049 24.4643C101.232 24.4643 100.491 24.3312 99.845 24.0461C99.199 23.761 98.6671 23.3998 98.2111 22.9246C97.7741 22.4493 97.432 21.8601 97.204 21.1948C96.976 20.5294 96.8431 19.7881 96.8431 19.0087C96.8431 18.2294 96.957 17.507 97.204 16.8417C97.432 16.1764 97.7741 15.6061 98.2111 15.1119C98.6481 14.6367 99.199 14.2565 99.845 13.9904C100.491 13.7243 101.232 13.5722 102.049 13.5722C102.866 13.5722 103.607 13.7053 104.253 13.9904C104.899 14.2565 105.431 14.6367 105.887 15.1119C106.324 15.5871 106.666 16.1764 106.894 16.8417C107.122 17.507 107.255 18.2294 107.255 19.0087C107.255 19.8071 107.141 20.5294 106.894 21.1948C106.647 21.8601 106.324 22.4303 105.887 22.9246C105.45 23.3998 104.899 23.78 104.253 24.0461C103.607 24.3122 102.885 24.4643 102.049 24.4643ZM102.049 22.6584C102.543 22.6584 102.999 22.5444 103.36 22.3353C103.74 22.1262 104.025 21.8411 104.272 21.4989C104.519 21.1567 104.69 20.7576 104.804 20.3394C104.918 19.9022 104.975 19.465 104.975 19.0087C104.975 18.5715 104.918 18.1343 104.804 17.6971C104.69 17.2599 104.519 16.8797 104.272 16.5376C104.025 16.1954 103.721 15.9293 103.36 15.7202C102.98 15.5111 102.543 15.397 102.049 15.397C101.555 15.397 101.099 15.5111 100.738 15.7202C100.358 15.9293 100.073 16.2144 99.8261 16.5376C99.5791 16.8797 99.408 17.2599 99.294 17.6971C99.18 18.1343 99.123 18.5715 99.123 19.0087C99.123 19.465 99.18 19.9022 99.294 20.3394C99.408 20.7766 99.5791 21.1567 99.8261 21.4989C100.073 21.8411 100.377 22.1262 100.738 22.3353C101.118 22.5634 101.555 22.6584 102.049 22.6584ZM107.939 13.8573H109.668V10.7399H111.948V13.8383H114V15.5301H111.948V21.0427C111.948 21.2898 111.967 21.4799 111.986 21.67C112.005 21.8411 112.062 21.9931 112.119 22.1072C112.195 22.2212 112.309 22.3163 112.442 22.3733C112.594 22.4303 112.784 22.4684 113.05 22.4684C113.202 22.4684 113.373 22.4684 113.525 22.4493C113.677 22.4303 113.848 22.4113 114 22.3733V24.1411C113.753 24.1792 113.506 24.1982 113.259 24.2172C113.012 24.2552 112.784 24.2552 112.518 24.2552C111.91 24.2552 111.435 24.1982 111.074 24.0841C110.713 23.9701 110.428 23.799 110.219 23.5899C110.01 23.3618 109.877 23.0956 109.801 22.7725C109.725 22.4493 109.687 22.0502 109.668 21.632V15.5491H107.939V13.8193V13.8193V13.8573Z" fill="white"/>
<path d="M27.303 9.92265H16.872L13.661 0L10.431 9.92265L0 9.90364L8.436 16.0435L5.206 25.9662L13.642 19.8263L22.078 25.9662L18.867 16.0435L27.303 9.92265Z" fill="#00B67A"/>
<path d="M19.5891 18.2866L18.8671 16.0436L13.6611 19.8263L19.5891 18.2866Z" fill="#005128"/>
</svg>
