<svg width="16" height="17" viewBox="0 0 16 17" fill="none" xmlns="http://www.w3.org/2000/svg">
<path d="M15.4877 7.21765C14.781 6.51176 14.2157 5.12353 14.2157 4.11176C14.2157 3.12353 13.3912 2.3 12.4019 2.3C11.4126 2.3 9.99926 1.71176 9.2926 1.02941C8.58594 0.323529 7.43173 0.323529 6.72506 1.02941C6.0184 1.73529 4.62863 2.3 3.61575 2.3C2.62643 2.3 1.80199 3.12353 1.80199 4.11176C1.80199 5.1 1.2131 6.51176 0.529996 7.21765C-0.176665 7.92353 -0.176665 9.07647 0.529996 9.78235C1.23666 10.4882 1.80199 11.8765 1.80199 12.8882C1.80199 13.8765 2.62643 14.7 3.61575 14.7C4.60508 14.7 6.0184 15.2882 6.72506 15.9706C7.43173 16.6765 8.58594 16.6765 9.2926 15.9706C9.99926 15.2647 11.389 14.7 12.4019 14.7C13.3912 14.7 14.2157 13.8765 14.2157 12.8882C14.2157 11.9 14.8046 10.4882 15.4877 9.78235C16.1708 9.07647 16.1708 7.9 15.4877 7.21765Z" fill="#39BA93"/>
<path fill-rule="evenodd" clip-rule="evenodd" d="M11.6494 5.68806C12.0475 5.98857 12.1169 6.5426 11.8045 6.92553L8.52921 10.9399C8.01749 11.5615 7.08074 11.6804 6.4164 11.2229C6.36891 11.1906 6.30737 11.1452 6.24361 11.0852L4.28361 9.28561C3.91755 8.9495 3.90407 8.39161 4.2535 8.03951C4.60292 7.68741 5.18293 7.67445 5.54899 8.01055L7.28738 9.60671L10.3628 5.83727C10.6753 5.45435 11.2513 5.38754 11.6494 5.68806ZM7.52051 9.82089C7.52344 9.82359 7.52646 9.82642 7.52955 9.82939L7.52051 9.82089Z" fill="white"/>
</svg>
