<svg width="46" height="32" viewBox="0 0 46 32" fill="none" xmlns="http://www.w3.org/2000/svg">
<path fill-rule="evenodd" clip-rule="evenodd" d="M14.5445 21.1442H11.7578L9.66808 13.0564C9.56889 12.6844 9.35829 12.3555 9.04851 12.2005C8.2754 11.8109 7.4235 11.5009 6.49414 11.3445V11.0331H10.9833C11.6029 11.0331 12.0676 11.5009 12.145 12.0441L13.2292 17.8781L16.0146 11.0331H18.7239L14.5445 21.1442ZM20.2728 21.1442H17.641L19.8081 11.0331H22.4399L20.2728 21.1442ZM25.8448 13.8343C25.9223 13.2898 26.387 12.9784 26.9291 12.9784C27.781 12.9002 28.709 13.0566 29.4835 13.4448L29.9481 11.2678C29.1737 10.9564 28.3218 10.8 27.5487 10.8C24.9943 10.8 23.1356 12.2006 23.1356 14.1444C23.1356 15.6231 24.4522 16.3995 25.3815 16.8673C26.387 17.3337 26.7742 17.6451 26.6968 18.1114C26.6968 18.811 25.9223 19.1224 25.1492 19.1224C24.2198 19.1224 23.2905 18.8892 22.4399 18.4997L21.9752 20.678C22.9046 21.0662 23.91 21.2226 24.8394 21.2226C27.7036 21.2994 29.4835 19.9002 29.4835 17.8001C29.4835 15.1553 25.8448 15.0003 25.8448 13.8343V13.8343ZM38.6941 21.1442L36.6044 11.0331H34.3599C33.8952 11.0331 33.4305 11.3445 33.2756 11.8109L29.406 21.1442H32.1153L32.656 19.6669H35.9849L36.2947 21.1442H38.6941ZM34.7471 13.7565L35.5202 17.5672H33.3531L34.7471 13.7565Z" fill="white"/>
</svg>
