<svg width="48" height="48" viewBox="0 0 48 48" fill="none" xmlns="http://www.w3.org/2000/svg">
<path d="M45.8295 11.7997H48C48 5.2921 42.6606 0 36.095 0V2.15126C41.4615 2.15126 45.8295 6.48067 45.8295 11.7997Z" fill="#2B80FF"/>
<path fill-rule="evenodd" clip-rule="evenodd" d="M12.0578 25.2235C12.075 25.7702 12.1044 26.3122 12.1438 26.8424L14.3088 26.681C14.2742 26.2039 14.2487 25.716 14.2334 25.2235H22.0303V30.828C21.6006 30.8499 21.1746 30.8853 20.7551 30.9351L21.0102 33.0703C21.3456 33.0307 21.6863 33.0002 22.0303 32.9793V41.4118C21.7887 41.3516 21.5478 41.271 21.3086 41.1697L21.1872 41.4537C21.1262 41.4472 21.0654 41.4404 21.0047 41.4333L20.9307 42.0534L20.4621 43.1489C20.5691 43.1943 20.6766 43.2368 20.7846 43.2765L20.7497 43.5684C21.5257 43.6545 22.3179 43.7029 23.1101 43.7029V43.7136H23.2024C28.4169 43.6921 33.3276 41.6699 37.0283 38.0235L37.7988 37.2598L37.7711 37.2324C39.2373 35.6182 40.4144 33.7887 41.2715 31.7849C42.3079 29.3647 42.8343 26.7993 42.8343 24.1533C42.8343 21.5072 42.3079 18.9365 41.2715 16.5217C40.4142 14.5175 39.2409 12.6918 37.7722 11.0785L37.7988 11.0521L37.0283 10.2884C35.2213 8.50285 33.116 7.09915 30.7719 6.12033C28.3409 5.10924 25.7689 4.59294 23.1155 4.59294H23.1101C20.4567 4.59294 17.8793 5.10386 15.4538 6.12033C13.1097 7.09915 11.0043 8.50285 9.19738 10.2884C9.0968 10.3878 8.99739 10.4881 8.89918 10.5893L8.43229 11.0521L8.44909 11.0688C6.98294 12.683 5.80583 14.5124 4.94868 16.5163C3.91228 18.9365 3.38594 21.5018 3.38594 24.1479C3.38594 25.0945 3.45105 26.0302 3.58128 26.9176L5.73005 26.6111C5.66473 26.161 5.61725 25.6968 5.58861 25.2235H12.0578ZM15.4592 15.9839C17.5527 16.8565 19.7593 17.3606 22.0303 17.4823V23.0723H14.2336C14.3139 20.5385 14.6777 18.11 15.2961 15.9149C15.3503 15.9381 15.4047 15.9611 15.4592 15.9839ZM12.0568 23.0723C12.1433 20.1912 12.5764 17.4243 13.3194 14.9351C12.1382 14.2646 11.032 13.4743 10.0103 12.5708C7.37036 15.4954 5.82942 19.1589 5.58945 23.0723H12.0568ZM24.2008 25.2235V30.8306C26.5152 30.9583 28.8023 31.492 30.9253 32.3964C31.5509 30.1816 31.916 27.7397 31.9972 25.2235H24.2008ZM34.1687 25.2235C34.0818 28.0882 33.6489 30.8693 32.9013 33.3745C34.084 34.0462 35.1932 34.8361 36.2142 35.7364C38.8551 32.8085 40.3952 29.1408 40.6317 25.2235H34.1687ZM40.6304 23.0723H34.1688C34.0823 20.1937 33.6491 17.4262 32.9062 14.9362C34.0844 14.2671 35.1893 13.4784 36.2117 12.5771C38.8493 15.4968 40.3895 19.1611 40.6304 23.0723ZM31.9975 23.0723H24.2008V17.4823C26.4706 17.3606 28.6738 16.8565 30.7719 15.9839C30.8264 15.9611 30.8807 15.938 30.935 15.9147C31.5534 18.1099 31.9171 20.5385 31.9975 23.0723ZM15.9743 13.8643C17.8699 14.702 19.9146 15.2003 22.0303 15.3275V6.88402C20.1778 7.34472 18.4249 8.97735 17.0111 11.5953C16.6284 12.3035 16.2823 13.0625 15.9743 13.8643ZM24.2008 41.4107V32.9803C26.2866 33.1093 28.3463 33.6067 30.2472 34.4446C29.4594 36.4975 28.4459 38.216 27.2828 39.4487C26.3172 40.4754 25.2667 41.1412 24.2008 41.4107ZM24.2008 6.88402V15.3274C26.315 15.2 28.3596 14.7012 30.2561 13.8628C29.9484 13.0616 29.6024 12.3031 29.22 11.5953C27.8061 8.97734 26.0533 7.34472 24.2008 6.88402ZM14.0371 12.8583C14.3547 12.0574 14.708 11.2953 15.0956 10.5788C15.6552 9.54332 16.2699 8.63269 16.9295 7.85455C15.779 8.28301 14.6762 8.83231 13.637 9.49583C12.9111 9.95963 12.2162 10.4791 11.5578 11.0521C12.3358 11.7303 13.1653 12.3336 14.0371 12.8583ZM32.1854 35.4494C31.3944 37.4507 30.4112 39.1365 29.2902 40.452C31.0059 39.8135 32.6166 38.9066 34.0684 37.7529C34.2714 37.5915 34.4713 37.4254 34.6679 37.2545C33.8943 36.5798 33.0629 35.9761 32.1854 35.4494ZM32.1888 12.8596C31.8712 12.0581 31.5177 11.2955 31.13 10.5788C30.5718 9.54571 29.9582 8.63691 29.2998 7.85995C31.2504 8.58879 33.0648 9.66574 34.6653 11.0591C33.8876 11.735 33.0591 12.3364 32.1888 12.8596Z" fill="#2B80FF"/>
<path fill-rule="evenodd" clip-rule="evenodd" d="M9.06715 48L5.10604 46.0208C3.57043 45.2518 2.279 44.0739 1.37825 42.6165C0.477504 41.159 0 39.4918 0 37.7815V31.4568L1.39996 31.1933C2.47434 30.9889 3.54872 30.6877 4.58512 30.2951C4.74248 30.236 4.91069 30.1714 5.08433 30.1015C6.26181 29.6229 7.40131 29.0205 8.47027 28.3106L9.07258 27.9126L9.67488 28.3106C10.8741 29.1066 12.1709 29.7681 13.5329 30.2897C14.5802 30.6824 15.6654 30.9889 16.7506 31.1933L18.1452 31.4568V37.7815C18.1452 38.6958 18.0095 39.6047 17.7382 40.476C17.4615 41.3741 17.0545 42.2131 16.5281 42.9768C15.6437 44.2622 14.4336 45.3109 13.0337 46.0155L9.06715 48ZM5.89826 32.0968C6.61034 31.8068 7.30869 31.4782 7.98734 31.1125V36.523H2.16505V33.237C3.23943 33.0111 4.30839 32.6992 5.33936 32.3119C5.513 32.2474 5.69749 32.1775 5.89826 32.0968ZM6.08275 44.1008C3.93925 43.0219 2.51411 40.9936 2.22107 38.6743H7.98734V45.0516L6.08275 44.1008ZM12.0515 44.0955L10.1578 45.0442V38.6743H15.9129C15.8625 39.0717 15.7781 39.4645 15.66 39.8467C15.4483 40.5351 15.1336 41.1805 14.7321 41.7667C14.0538 42.7509 13.1259 43.5576 12.0515 44.0955ZM10.1578 36.523H15.9693V33.237C14.884 33.0111 13.8042 32.6992 12.7515 32.3012C11.8605 31.9621 10.9929 31.5662 10.1578 31.1171V36.523Z" fill="#2B80FF"/>
<path d="M42.8017 11.7997H40.6312C40.6312 9.32571 38.5964 7.3089 36.1004 7.3089V5.15764C39.7956 5.15764 42.8017 8.13714 42.8017 11.7997Z" fill="#2B80FF"/>
</svg>
