<svg width="46" height="32" viewBox="0 0 46 32" fill="none" xmlns="http://www.w3.org/2000/svg">
<path fill-rule="evenodd" clip-rule="evenodd" d="M16.9701 21.538C17.1786 21.4313 17.5331 21.2912 17.9085 21.2912C18.7704 21.2912 19.2362 21.8647 19.2362 22.9319C19.2362 24.1787 18.6108 24.7856 17.6028 24.7856C17.2342 24.7856 16.6642 24.6723 16.247 24.4585V19.8042L16.9701 19.6375V21.538ZM16.9632 24.2119C17.1855 24.3053 17.429 24.3185 17.6028 24.3185C18.1172 24.3185 18.5065 24.0119 18.5065 22.9319C18.5065 22.0847 18.1867 21.8114 17.721 21.8114C17.4427 21.8114 17.2413 21.8847 16.9632 22.0314V24.2119ZM9.55922 21.3777H9.6079L10.5531 24.7055H11.3038L12.4301 19.9773H11.6167L10.9077 23.5051H10.8592L9.89277 19.9773H9.2741L8.37045 23.5051H8.32176L7.54314 19.9773H6.76465L7.89084 24.7055H8.64142L9.55922 21.3777ZM15.5105 24.4785V23.9717C15.1282 24.1918 14.7807 24.3184 14.4054 24.3184C13.6893 24.3184 13.3488 23.9649 13.3488 23.1648H15.6148V22.9182C15.6148 21.8314 15.0795 21.2911 14.2108 21.2911C13.168 21.2911 12.6327 22.0247 12.6327 23.0381C12.6327 24.0919 13.1124 24.7855 14.2801 24.7855C14.7807 24.7855 15.1978 24.6521 15.5105 24.4785ZM14.9544 22.7179H13.3629C13.4391 22.0512 13.7656 21.7377 14.1899 21.7377C14.5653 21.7377 14.92 22.0176 14.9544 22.7179ZM22.4341 23.7051H22.3992L20.8421 19.9773H20.001V24.7055H20.6267V21.3579H20.6891L22.1074 24.7055H22.5521L23.9703 21.2778H24.033V24.7055H24.7837V19.9773H23.9216L22.4341 23.7051ZM25.5485 23.0381C25.5485 21.8711 26.2158 21.2911 27.1334 21.2911C28.0511 21.2911 28.7185 21.8711 28.7185 23.0381C28.7185 24.1786 28.0859 24.7855 27.1334 24.7855C26.1809 24.7855 25.5485 24.1786 25.5485 23.0381ZM27.9884 23.0381C27.9884 22.1379 27.6059 21.7579 27.1333 21.7579C26.6745 21.7579 26.2782 22.1379 26.2782 23.0381C26.2782 23.952 26.6399 24.3184 27.1333 24.3184C27.6268 24.3184 27.9884 23.952 27.9884 23.0381ZM31.151 21.2911C30.352 21.2911 29.6914 21.6044 29.3786 21.7845V24.7054H30.1016V22.0646C30.3171 21.9448 30.6716 21.8245 30.9499 21.8245C31.3043 21.8245 31.5752 21.9179 31.5752 22.4448V24.7054H32.2981V22.2912C32.2981 21.6044 31.9856 21.2911 31.151 21.2911ZM35.8224 23.9717V24.4785C35.5097 24.6521 35.0928 24.7855 34.5921 24.7855C33.4244 24.7855 32.9447 24.0919 32.9447 23.0381C32.9447 22.0247 33.4801 21.2911 34.5227 21.2911C35.3918 21.2911 35.9272 21.8314 35.9272 22.9182V23.1648H33.661C33.661 23.9649 34.0015 24.3184 34.7175 24.3184C35.0928 24.3184 35.4404 24.1918 35.8224 23.9717ZM33.6748 22.7179H35.2666C35.2321 22.0176 34.8773 21.7377 34.5019 21.7377C34.0777 21.7377 33.7514 22.0512 33.6748 22.7179ZM39.3751 21.4044H38.6312L37.8385 23.8582H37.797L36.9073 21.4044H36.1426L37.4773 24.7386C37.3102 25.232 37.0185 25.5924 36.5458 25.5924V26.1389C37.3448 26.1389 37.769 25.659 38.1167 24.7386L39.3751 21.4044Z" fill="white"/>
<path fill-rule="evenodd" clip-rule="evenodd" d="M22.6038 6C23.5605 6 24.4665 6.21371 25.2734 6.59311C25.4001 6.65079 25.5265 6.71424 25.6533 6.78429L25.0924 7.26584L24.2497 6.43L22.8275 7.6469L21.9827 6.76247L19.3333 9.05332L21.0318 10.8489L20.3644 11.4121L22.0373 13.2104L21.3738 13.7723L23.7643 16.3248L25.1834 15.0716L26.4102 16.4146C26.1662 16.5966 25.9004 16.7678 25.6075 16.9261C24.7204 17.4114 23.695 17.6893 22.6038 17.6893C19.2481 17.6893 16.5112 15.0635 16.5112 11.8448C16.5112 8.62543 19.2481 6 22.6038 6ZM21.4934 11.4754L22.9422 10.2238L24.2468 11.614L22.7982 12.8651L21.4934 11.4754ZM23.9726 12.6257L22.5237 13.8769L23.8285 15.267L25.2773 14.0155L23.9726 12.6257ZM20.4568 9.10198L21.9056 7.85077L23.2098 9.24056L21.761 10.4918L20.4568 9.10198ZM24.2021 7.49011L23.1155 8.42843L24.0938 9.47113L25.1804 8.53245L24.2021 7.49011ZM25.0461 12.7271L26.133 11.7884L27.1113 12.831L26.0247 13.7694L25.0461 12.7271ZM27.0883 13.8939L26.002 14.8327L26.9803 15.8747L28.0669 14.9362L27.0883 13.8939ZM26.4396 10.0073L27.164 9.38164L27.8161 10.0765L27.0921 10.7021L26.4396 10.0073ZM26.2385 7.31698L25.5141 7.94253L26.1662 8.63742L26.8907 8.01187L26.2385 7.31698ZM27.3656 12.0716L28.09 11.4459L28.7423 12.1407L28.0179 12.7664L27.3656 12.0716ZM25.2035 9.58587L24.117 10.5247L25.0955 11.5666L26.1817 10.6282L25.2035 9.58587Z" fill="white"/>
</svg>
