<svg width="46" height="32" viewBox="0 0 46 32" fill="none" xmlns="http://www.w3.org/2000/svg">
<path d="M20.5514 18.4746C20.4595 18.5228 20.356 18.5507 20.2459 18.5507C19.9912 18.5507 19.7699 18.4052 19.6536 18.1898L19.6091 18.0886L17.7547 13.8625C17.7347 13.8165 17.7223 13.7645 17.7223 13.7139C17.7223 13.5192 17.8744 13.3614 18.0619 13.3614C18.138 13.3614 18.2085 13.3876 18.2651 13.4313L20.4533 15.0495C20.6132 15.158 20.8042 15.2217 21.0095 15.2217C21.1321 15.2217 21.2489 15.198 21.3579 15.1568L31.6485 10.4001C29.8039 8.14236 26.7661 6.66675 23.3284 6.66675C17.7028 6.66675 13.1428 10.6135 13.1428 15.4824C13.1428 18.1385 14.5148 20.5296 16.6622 22.1458C16.8344 22.2735 16.9473 22.4834 16.9473 22.7202C16.9473 22.7986 16.9311 22.87 16.9114 22.9447C16.7399 23.6092 16.4654 24.6733 16.4526 24.7231C16.4312 24.8065 16.3978 24.8936 16.3978 24.9809C16.3978 25.1756 16.5497 25.3334 16.7375 25.3334C16.8111 25.3334 16.8713 25.3049 16.9335 25.2678L19.1634 23.9307C19.3311 23.8303 19.5087 23.7678 19.7044 23.7678C19.8085 23.7678 19.909 23.7846 20.0036 23.8147C21.0439 24.1254 22.1662 24.2981 23.3284 24.2981C28.9536 24.2981 33.5143 20.3511 33.5143 15.4824C33.5143 14.0077 33.0934 12.6188 32.3539 11.3971L20.6261 18.4299L20.5514 18.4746Z" fill="white"/>
</svg>
